/* XPM */
static char *result[] = {
/* columns rows colors chars-per-pixel */
"128 128 12 1 ",
"  c green",
". c #424556",
"X c #2F2C3F",
"o c #585C75",
"O c #CE2038",
"+ c #FF2245",
"@ c #1E1825",
"# c #252331",
"$ c black",
"% c #18171F",
"& c #FF8F8F",
"* c #222034",
/* pixels */
"                                                                                                                                ",
"                                                                                                                                ",
"                                                                                                                                ",
"                                                                                                                                ",
"                                                                                                                                ",
"                                                                                                                                ",
"                                                                                                                                ",
"                                                                                                                                ",
"                                                                                                                                ",
"                                                                                                                                ",
"                                                                                                                                ",
"                                                                                                                                ",
"                                                                                                                                ",
"                                                                                                                                ",
"                                                                                                                                ",
"                                                                                                                                ",
"                                                                                                                                ",
"                                                                                                                                ",
"                                                                                                                                ",
"                                                                                                                                ",
"                                                                                                                                ",
"                                                                                                                                ",
"                                                                                                                                ",
"                                                                                                                                ",
"                                                                                                                                ",
"                                                                                                                                ",
"                                                                                                                                ",
"                                                                                                                                ",
"                                                                                                                                ",
"                                                                                                                                ",
"                                                                                                                                ",
"                                                                                                                                ",
"                                                                                                                                ",
"                                                                                                                                ",
"                                                                                                                                ",
"                                                                                                                                ",
"                                                                                                                                ",
"                                                                                                                                ",
"                                                                                                                                ",
"                                                          .          X                                                          ",
"                                                         X.          XX                                                         ",
"                                                        X.            Xo                                                        ",
"                                                       XX.   O++++    Xoo                                                       ",
"                                                      XX.   O++O+++    Xoo                                                      ",
"                                                      XX.  OOO+    +   X.o                                                      ",
"                                                     @X.. OOOO      +  X..o                                                     ",
"                                                     @... ++O          X..o                                                     ",
"                                                     @... O+O          X..o                                                     ",
"                                                     @... O++          X..o                                                     ",
"                                                     @... OO+          X..o                                                     ",
"                                                     @X... O+         X...o                                                     ",
"                                                     @X... O+O      + X...o                                                     ",
"                                                     @XX... OO+    + X....o                                                     ",
"                                                      @XX..   +++++  X...o                                                      ",
"                                                      @@XX..        X....o                                                      ",
"                                                       @XXX...    XX....o                                                       ",
"                                                        @XXX..XXXX.....o                                                        ",
"                                                         @XXX.........o                                                         ",
"                                                          @XXX.......o                                                          ",
"                                                           @@XX....oo                                                           ",
"                                                        #    @XX...    X                                                        ",
"                                                        $%  @@XXX...  XX                                                        ",
"                                                        %%%XXXXXXX....XX                                                        ",
"                                                       @X#X###XXXX.XXX..X      OO                                               ",
"                                               OO      @XXX#######XX#...X      O++  O                                           ",
"                                              OOO      @X#X%XXX##XXXX#..X       O+                                              ",
"                                              O++      @#X%##XX+&.XXX#..X                                                       ",
"                                              +++     @#X%##XX++&&.XXX#..*                                                      ",
"                                              ++      @X%##X#X+&&&..XX#..*                                                      ",
"                                          OO          @X%##XX++&&&&.XXX#.*                                                      ",
"                                          +O         #X%###X#++&&&&.XXXX#.X                                                     ",
"                                                     #X%##XX+++&&&&&.XXX#.X                                                     ",
"                                                     X%###XX++OO&&++.XXXX#X                                                     ",
"                                                     %%###XXOOOO++++..XX##X*                                                    ",
"                                                    #%%%%%XXXOOO+++...##X#.X                                                    ",
"                                                    ##%XX%%%XOOO+++.##XX#..X                                                    ",
"                                                    ##X%%XXX%%OO++##XXX#.OOX                                                    ",
"                                                   *###XX%##XXOO++XXXX#..OO.*                                                   ",
"                                                   *#####X%##XXO+XXXX#..OOO.X                                                   ",
"                                                   #######X%##XXXXXX#...O++.X&                                                  ",
"                                                  +%OO#####X%%#X#XX#....++..X&&                                                 ",
"                                                 ++%O++##O##XX%XXX#.......X.XX&&                                                ",
"                                                ++%%#O+#######X#X#.XX.....XXXX&&&                                               ",
"                                               +++%#*###X#####X#X#.......X.XXX&&&                                               ",
"                                              ++++%#**##X#######X#....X..X.X#X&&&&                                              ",
"                                             +++++%##**#########X#.X..X.X..XXXX&&&&                                             ",
"                                            ++++++%X############X#...X....#XXXX&&&&&                                            ",
"                                            OO+++%%###X#######X###X.......XXXXXX&&&+                                            ",
"                                            OOO++%########X##XX#X#X......#XXX##X&&++                                            ",
"                                             OOO*%###X##X#X#X#X#X#..X.X...XX#XXX++++                                            ",
"                                             OOO%%######X#X##XX#&#...X..#XXXXXX*++++                                            ",
"                                             OOO%######X###**XX+&&..X...#XXXXXX*X++                                             ",
"                                              OO%#######X#X*#X++&&&X...#XXXXXXXXX++                                             ",
"                                              O%%############X++&&&X...#XXXXXXXXXX+                                             ",
"                                              O%############X+++&&&&...XXXXXXXXXXX+                                             ",
"                                              %*#####X######X+++&&&+...XXXXXXXXXXX                                              ",
"                                              *#####X######*XOOO++++..#XXXXXXXXXXX                                              ",
"                                              *#####X#######XXOOO++..#.XXXX#XXXXX*X                                             ",
"                                             X########X###*#XXOOO++..#XXXXXXXXXXXXX                                             ",
"                                             X##*#X##########X#OO+#...#XXXXXXXXXXXX                                             ",
"                                            XX#*XX##X#X####*#X#XO.#.XX.XXXX#XXX.XXXX                                            ",
"                                           XX#XX####X#####XX#X#XX.##.#X#XXXXXXXXXXX*X                                           ",
"                                          XX##XX#X#X####X#X*XX#XX.###XXXX.XXX#XXXXX**X                                          ",
"                                         XX###X####XX####X**XX#X###.X..XXXXXXXX#XX****X                                         ",
"                                        XX###XX##X#X######**XX#XX.#.XXXXXXXX#XXX#X#****X                                        ",
"                                       XXX###XXX##XX##XX##**XX#X..#.XXX.XX.#.#XXXX******X                                       ",
"                                      XXX######X#XX###X###**XX#X..#XXXXXXXXXXXXXX********X                                      ",
"                                     XXX*#############X###**XX#X..#XXXXXXXXXXXXX#*********X                                     ",
"                                    XXX*####X############**XXX#X..#XXXX.XXXX#XXXXX*********X                                    ",
"                                   XXX**####X############***XX#X..#XXXXX.XXXXXXX************X                                   ",
"                                  XXX***###XXX#########X*#**X@@@@@@XXXXX.XXXXXXXX************X                                  ",
"                                 XX*****#X#X###########*##**X**@@@@XXXXX.XXX.XXX**************X                                 ",
"                                XX******###XX###X#####*X#***X**@@@@XXXXXX..XXXX****************X                                ",
"                               XX********X#X#####X#######**X****@@@@XXXXXXXXXXX*****************X                               ",
"                              XX*********XXX#####X######*X*X****@@@@XXXXXXXXXX*******************X                              ",
"                              X**********XX#X#########X#***X***@@@@@XXXXXXXXXX*******************X                              ",
"                              X*********XX#######XX####***XX***@@@@@XXXX.XXXXX******************XX                              ",
"                              X*********X##X#######X###***XX**@@@@@@XXXXXXXXX*******************XX                              ",
"                                     ***X*##X#######X**#**XX**@@@@@@XXXXXXXXX**************                                     ",
"                                          ***##########**XX**@@@@@@@@XXXXXXXX*********                                          ",
"                                              *########*XXX**@@@@@@@@XXXXXXX******                                              ",
"                                                 X#####*XXX**@@@@@@@@XXXXXXX***                                                 ",
"                                                     ####XX**@@@@@@@@XXXXXX                                                     ",
"                                                         XX***@@@@@@@XX                                                         ",
"                                                           ***@@@@@@@                                                           ",
"                                                           ***@@@@@@@                                                           ",
"                                                           @**@@@@@@@                                                           ",
"                                                             *@@@@@                                                             "
};
