/* XPM */
static char *result[] = {
/* columns rows colors chars-per-pixel */
"128 128 12 1 ",
"  c green",
". c #424556",
"X c #2F2C3F",
"o c #CE2038",
"O c #FF2245",
"+ c #585C75",
"@ c #1E1825",
"# c #252331",
"$ c black",
"% c #18171F",
"& c #FF8F8F",
"* c #222034",
/* pixels */
"                                                                                                                                ",
"                                                                                                                                ",
"                                                                                                                                ",
"                                                                                                                                ",
"                                                                                                                                ",
"                                                                                                                                ",
"                                                                                                                                ",
"                                                                                                                                ",
"                                                                                                                                ",
"                                                                                                                                ",
"                                                                                                                                ",
"                                                                                                                                ",
"                                                                                                                                ",
"                                                                                                                                ",
"                                                                                                                                ",
"                                                                                                                                ",
"                                                                                                                                ",
"                                                                                                                                ",
"                                                                                                                                ",
"                                                                                                                                ",
"                                                                                                                                ",
"                                                                                                                                ",
"                                                                                                                                ",
"                                                                                                                                ",
"                                                                                                                                ",
"                                                                                                                                ",
"                                                                                                                                ",
"                                                                                                                                ",
"                                                                                                                                ",
"                                                                                                                                ",
"                                                                                                                                ",
"                                                                                                                                ",
"                                                                                                                                ",
"                                                                                                                                ",
"                                                                                                                                ",
"                                                                                                                                ",
"                                                                                                                                ",
"                                                                                                                                ",
"                                                                                                                                ",
"                                                          .          X                                                          ",
"                                                         X.          XX                                                         ",
"                                                        X.   oOOOO    X+                                                        ",
"                                                       XX.  oOOoOOO   X++                                                       ",
"                                                      XX.  oooO    O   X++                                                      ",
"                                                      XX. oooo      O  X.+                                                      ",
"                                                     @X.. OOo          X..+                                                     ",
"                                                     @... oOo          X..+                                                     ",
"                                                     @... oOO          X..+                                                     ",
"                                                     @... ooO          X..+                                                     ",
"                                                     @...  oO          X..+                                                     ",
"                                                     @X... oOo      O X...+                                                     ",
"                                                     @X...  ooO    O  X...+                                                     ",
"                                                     @XX...   OOOOO  X....+                                                     ",
"                                                      @XX..          X...+                                                      ",
"                                                      @@XX..        X....+                                                      ",
"                                                       @XXX...    XX....+                                                       ",
"                                                        @XXX..XXXX.....+                                                        ",
"                                                         @XXX.........+                                                         ",
"                                                          @XXX.......+                                                          ",
"                                                           @@XX....++                                                           ",
"                                                        #    @XX...    X                                                        ",
"                                                        $%  @@XXX...  XX                                                        ",
"                                                        %%%XXXXXXX....XX                                                        ",
"                                                       @X#X###XXXX.XXX..X      oo                                               ",
"                                               oo      @XXX#######XX#...X      oOO  o                                           ",
"                                              ooo      @X#X%XXX##XXXX#..X       oO                                              ",
"                                              oOO      @#X%##XXO&.XXX#..X                                                       ",
"                                              OOO     @#X%##XXOO&&.XXX#..*                                                      ",
"                                              OO      @X%##X#XO&&&..XX#..*                                                      ",
"                                          oo          @X%##XXOO&&&&.XXX#.*                                                      ",
"                                          Oo         #X%###X#OO&&&&.XXXX#.X                                                     ",
"                                                     #X%##XXOOO&&&&&.XXX#.X                                                     ",
"                                                     X%###XXOOoo&&OO.XXXX#X                                                     ",
"                                                     %%###XXooooOOOO..XX##X*                                                    ",
"                                                    #%%%%%XXXoooOOO...##X#.X                                                    ",
"                                                    ##%XX%%%XoooOOO.##XX#..X                                                    ",
"                                                    ##X%%XXX%%ooOO##XXX#.ooX                                                    ",
"                                                   *###XX%##XXooOOXXXX#.ooo.*                                                   ",
"                                                   *#####X%##XXoOXXXX#..oOO.X                                                   ",
"                                                   #######X%##XXXXXX#...OOO.X&                                                  ",
"                                                  O%oo#####X%%#X#XX#....OO..X&&                                                 ",
"                                                 OO%oOO##o##XX%XXX#.......X.XX&&                                                ",
"                                                OO%%#oO#######X#X#.XX.....XXXX&&&                                               ",
"                                               OOO%#*###X#####X#X#.......X.XXX&&&                                               ",
"                                              OOOO%#**##X#######X#....X..X.X#X&&&&                                              ",
"                                             OOOOO%##**#########X#.X..X.X..XXXX&&&&                                             ",
"                                            OOOOOO%X############X#...X....#XXXX&&&&&                                            ",
"                                            ooOOO%%###X#######X###X.......XXXXXX&&&O                                            ",
"                                            oooOO%########X##XX#X#X......#XXX##X&&OO                                            ",
"                                             ooo*%###X##X#X#X#X#X#..X.X...XX#XXXOOOO                                            ",
"                                             ooo%%######X#X##XX#&#...X..#XXXXXX*OOOO                                            ",
"                                             ooo%######X###**XXO&&..X...#XXXXXX*XOO                                             ",
"                                              oo%#######X#X*#XOO&&&X...#XXXXXXXXXOO                                             ",
"                                              o%%############XOO&&&X...#XXXXXXXXXXO                                             ",
"                                              o%############XOOO&&&&...XXXXXXXXXXXO                                             ",
"                                              %*#####X######XOOO&&&O...XXXXXXXXXXX                                              ",
"                                              *#####X######*XoooOOOO..#XXXXXXXXXXX                                              ",
"                                              *#####X#######XXoooOO..#.XXXX#XXXXX*X                                             ",
"                                             X########X###*#XXoooOO..#XXXXXXXXXXXXX                                             ",
"                                             X##*#X##########X#ooO#...#XXXXXXXXXXXX                                             ",
"                                            XX#*XX##X#X####*#X#Xo.#.XX.XXXX#XXX.XXXX                                            ",
"                                           XX#XX####X#####XX#X#XX.##.#X#XXXXXXXXXXX*X                                           ",
"                                          XX##XX#X#X####X#X*XX#XX.###XXXX.XXX#XXXXX**X                                          ",
"                                         XX###X####XX####X**XX#X###.X..XXXXXXXX#XX****X                                         ",
"                                        XX###XX##X#X######**XX#XX.#.XXXXXXXX#XXX#X#****X                                        ",
"                                       XXX###XXX##XX##XX##**XX#X..#.XXX.XX.#.#XXXX******X                                       ",
"                                      XXX######X#XX###X###**XX#X..#XXXXXXXXXXXXXX********X                                      ",
"                                     XXX*#############X###**XX#X..#XXXXXXXXXXXXX#*********X                                     ",
"                                    XXX*####X############**XXX#X..#XXXX.XXXX#XXXXX*********X                                    ",
"                                   XXX**####X############***XX#X..#XXXXX.XXXXXXX************X                                   ",
"                                  XXX***###XXX#########X*#**X@@@@@@XXXXX.XXXXXXXX************X                                  ",
"                                 XX*****#X#X###########*##**X**@@@@XXXXX.XXX.XXX**************X                                 ",
"                                XX******###XX###X#####*X#***X**@@@@XXXXXX..XXXX****************X                                ",
"                               XX********X#X#####X#######**X****@@@@XXXXXXXXXXX*****************X                               ",
"                              XX*********XXX#####X######*X*X****@@@@XXXXXXXXXX*******************X                              ",
"                              X**********XX#X#########X#***X***@@@@@XXXXXXXXXX*******************X                              ",
"                              X*********XX#######XX####***XX***@@@@@XXXX.XXXXX******************XX                              ",
"                              X*********X##X#######X###***XX**@@@@@@XXXXXXXXX*******************XX                              ",
"                                     ***X*##X#######X**#**XX**@@@@@@XXXXXXXXX**************                                     ",
"                                          ***##########**XX**@@@@@@@@XXXXXXXX*********                                          ",
"                                              *########*XXX**@@@@@@@@XXXXXXX******                                              ",
"                                                 X#####*XXX**@@@@@@@@XXXXXXX***                                                 ",
"                                                     ####XX**@@@@@@@@XXXXXX                                                     ",
"                                                         XX***@@@@@@@XX                                                         ",
"                                                           ***@@@@@@@                                                           ",
"                                                           ***@@@@@@@                                                           ",
"                                                           @**@@@@@@@                                                           ",
"                                                             *@@@@@                                                             "
};
