/* XPM */
static char *result[] = {
/* columns rows colors chars-per-pixel */
"128 128 12 1 ",
"  c green",
". c #424556",
"X c #2F2C3F",
"o c #FF8F8F",
"O c #FF2245",
"+ c #585C75",
"@ c #1E1825",
"# c #252331",
"$ c black",
"% c #18171F",
"& c #222034",
"* c #CE2038",
/* pixels */
"                                                                                                                                ",
"                                                                                                                                ",
"                                                                                                                                ",
"                                                                                                                                ",
"                                                                                                                                ",
"                                                                                                                                ",
"                                                                                                                                ",
"                                                                                                                                ",
"                                                                                                                                ",
"                                                                                                                                ",
"                                                                                                                                ",
"                                                                                                                                ",
"                                                                                                                                ",
"                                                                                                                                ",
"                                                                                                                                ",
"                                                                                                                                ",
"                                                                                                                                ",
"                                                                                                                                ",
"                                                                                                                                ",
"                                                                                                                                ",
"                                                                                                                                ",
"                                                                                                                                ",
"                                                                                                                                ",
"                                                                                                                                ",
"                                                                                                                                ",
"                                                                                                                                ",
"                                                                                                                                ",
"                                                                                                                                ",
"                                                                                                                                ",
"                                                                                                                                ",
"                                                                                                                                ",
"                                                                                                                                ",
"                                                                                                                                ",
"                                                                                                                                ",
"                                                                                                                                ",
"                                                                                                                                ",
"                                                                                                                                ",
"                                                                                                                                ",
"                                                                                                                                ",
"                                                          .          X                                                          ",
"                                                         X.  oOOOO   XX                                                         ",
"                                                        X.  oOOoOOO   X+                                                        ",
"                                                       XX. oooO    O  X++                                                       ",
"                                                      XX. oooo      O  X++                                                      ",
"                                                      XX. OOo          X.+                                                      ",
"                                                     @X.. oOo          X..+                                                     ",
"                                                     @... oOO          X..+                                                     ",
"                                                     @... ooO          X..+                                                     ",
"                                                     @...  oO          X..+                                                     ",
"                                                     @...  oOo      O  X..+                                                     ",
"                                                     @X...  ooO    O  X...+                                                     ",
"                                                     @X...    OOOOO   X...+                                                     ",
"                                                     @XX...          X....+                                                     ",
"                                                      @XX..          X...+                                                      ",
"                                                      @@XX..        X....+                                                      ",
"                                                       @XXX...    XX....+                                                       ",
"                                                        @XXX..XXXX.....+                                                        ",
"                                                         @XXX.........+                                                         ",
"                                                          @XXX.......+                                                          ",
"                                                           @@XX....++                                                           ",
"                                                        #    @XX...    X                                                        ",
"                                                        $%  @@XXX...  XX       OO                                               ",
"                                               OO       %%%XXXXXXX....XX       Ooo  O                                           ",
"                                              OOO      @X#X###XXXX.XXX..X       Oo                                              ",
"                                              Ooo      @XXX#######XX#...X                                                       ",
"                                              ooo      @X#X%XXX##XXXX#..X                                                       ",
"                                              oo       @#X%##XXOo.XXX#..X                                                       ",
"                                          OO          @#X%##XXOOoo.XXX#..&                                                      ",
"                                          oO          @X%##X#XOooo..XX#..&                                                      ",
"                                                      @X%##XXOOoooo.XXX#.&                                                      ",
"                                                     #X%###X#OOoooo.XXXX#.X                                                     ",
"                                                     #X%##XXOOOooooo.XXX#.X                                                     ",
"                                                     X%###XXOO**ooOO.XXXX#X                                                     ",
"                                                     %%###XX****OOOO..XX##X&                                                    ",
"                                                    #%%%%%XXX***OOO...##XOOX                                                    ",
"                                                    ##%XX%%%X***OOO.##XXOOOX                                                    ",
"                                                    ##X%%XXX%%**OO##XXX#OooX                                                    ",
"                                                   &###XX%##XX**OOXXXX#.ooo.&                                                   ",
"                                                   &OO###X%##XX*OXXXX#..oo..X                                                   ",
"                                                   #Ooo##OX%##XXXXXX#....X..Xo                                                  ",
"                                                  O%#Oo####X%%#X#XX#....X...Xoo                                                 ",
"                                                 OO%########XX%XXX#.......X.XXoo                                                ",
"                                                OO%%##########X#X#.XX.....XXXXooo                                               ",
"                                               OOO%#&###X#####X#X#.......X.XXXooo                                               ",
"                                              OOOO%#&&##X#######X#....X..X.X#Xoooo                                              ",
"                                             OOOOO%##&&#########X#.X..X.X..XXXXoooo                                             ",
"                                            OOOOOO%X############X#...X....#XXXXooooo                                            ",
"                                            **OOO%%###X#######X###X.......XXXXXXoooO                                            ",
"                                            ***OO%########X##XX#X#X......#XXX##XooOO                                            ",
"                                             ***&%###X##X#X#X#X#X#..X.X...XX#XXXOOOO                                            ",
"                                             ***%%######X#X##XX#o#...X..#XXXXXX&OOOO                                            ",
"                                             ***%######X###&&XXOoo..X...#XXXXXX&XOO                                             ",
"                                              **%#######X#X&#XOOoooX...#XXXXXXXXXOO                                             ",
"                                              *%%############XOOoooX...#XXXXXXXXXXO                                             ",
"                                              *%############XOOOoooo...XXXXXXXXXXXO                                             ",
"                                              %&#####X######XOOOoooO...XXXXXXXXXXX                                              ",
"                                              &#####X######&X***OOOO..#XXXXXXXXXXX                                              ",
"                                              &#####X#######XX***OO..#.XXXX#XXXXX&X                                             ",
"                                             X########X###&#XX***OO..#XXXXXXXXXXXXX                                             ",
"                                             X##&#X##########X#**O#...#XXXXXXXXXXXX                                             ",
"                                            XX#&XX##X#X####&#X#X*.#.XX.XXXX#XXX.XXXX                                            ",
"                                           XX#XX####X#####XX#X#XX.##.#X#XXXXXXXXXXX&X                                           ",
"                                          XX##XX#X#X####X#X&XX#XX.###XXXX.XXX#XXXXX&&X                                          ",
"                                         XX###X####XX####X&&XX#X###.X..XXXXXXXX#XX&&&&X                                         ",
"                                        XX###XX##X#X######&&XX#XX.#.XXXXXXXX#XXX#X#&&&&X                                        ",
"                                       XXX###XXX##XX##XX##&&XX#X..#.XXX.XX.#.#XXXX&&&&&&X                                       ",
"                                      XXX######X#XX###X###&&XX#X..#XXXXXXXXXXXXXX&&&&&&&&X                                      ",
"                                     XXX&#############X###&&XX#X..#XXXXXXXXXXXXX#&&&&&&&&&X                                     ",
"                                    XXX&####X############&&XXX#X..#XXXX.XXXX#XXXXX&&&&&&&&&X                                    ",
"                                   XXX&&####X############&&&XX#X..#XXXXX.XXXXXXX&&&&&&&&&&&&X                                   ",
"                                  XXX&&&###XXX#########X&#&&X@@@@@@XXXXX.XXXXXXXX&&&&&&&&&&&&X                                  ",
"                                 XX&&&&&#X#X###########&##&&X&&@@@@XXXXX.XXX.XXX&&&&&&&&&&&&&&X                                 ",
"                                XX&&&&&&###XX###X#####&X#&&&X&&@@@@XXXXXX..XXXX&&&&&&&&&&&&&&&&X                                ",
"                               XX&&&&&&&&X#X#####X#######&&X&&&&@@@@XXXXXXXXXXX&&&&&&&&&&&&&&&&&X                               ",
"                              XX&&&&&&&&&XXX#####X######&X&X&&&&@@@@XXXXXXXXXX&&&&&&&&&&&&&&&&&&&X                              ",
"                              X&&&&&&&&&&XX#X#########X#&&&X&&&@@@@@XXXXXXXXXX&&&&&&&&&&&&&&&&&&&X                              ",
"                              X&&&&&&&&&XX#######XX####&&&XX&&&@@@@@XXXX.XXXXX&&&&&&&&&&&&&&&&&&XX                              ",
"                              X&&&&&&&&&X##X#######X###&&&XX&&@@@@@@XXXXXXXXX&&&&&&&&&&&&&&&&&&&XX                              ",
"                                     &&&X&##X#######X&&#&&XX&&@@@@@@XXXXXXXXX&&&&&&&&&&&&&&                                     ",
"                                          &&&##########&&XX&&@@@@@@@@XXXXXXXX&&&&&&&&&                                          ",
"                                              &########&XXX&&@@@@@@@@XXXXXXX&&&&&&                                              ",
"                                                 X#####&XXX&&@@@@@@@@XXXXXXX&&&                                                 ",
"                                                     ####XX&&@@@@@@@@XXXXXX                                                     ",
"                                                         XX&&&@@@@@@@XX                                                         ",
"                                                           &&&@@@@@@@                                                           ",
"                                                           &&&@@@@@@@                                                           ",
"                                                           @&&@@@@@@@                                                           ",
"                                                             &@@@@@                                                             "
};
