/* XPM */
static char *result[] = {
/* columns rows colors chars-per-pixel */
"128 128 13 1 ",
"  c green",
". c #424556",
"X c #2F2C3F",
"o c #8A0B41",
"O c #CE2038",
"+ c #585C75",
"@ c #1E1825",
"# c #252331",
"$ c black",
"% c #18171F",
"& c #FF2245",
"* c #FF8F8F",
"= c #222034",
/* pixels */
"                                                                                                                                ",
"                                                                                                                                ",
"                                                                                                                                ",
"                                                                                                                                ",
"                                                                                                                                ",
"                                                                                                                                ",
"                                                                                                                                ",
"                                                                                                                                ",
"                                                                                                                                ",
"                                                                                                                                ",
"                                                                                                                                ",
"                                                                                                                                ",
"                                                                                                                                ",
"                                                                                                                                ",
"                                                                                                                                ",
"                                                                                                                                ",
"                                                                                                                                ",
"                                                                                                                                ",
"                                                                                                                                ",
"                                                                                                                                ",
"                                                                                                                                ",
"                                                                                                                                ",
"                                                                                                                                ",
"                                                                                                                                ",
"                                                                                                                                ",
"                                                                                                                                ",
"                                                                                                                                ",
"                                                                                                                                ",
"                                                                                                                                ",
"                                                                                                                                ",
"                                                                                                                                ",
"                                                                                                                                ",
"                                                                                                                                ",
"                                                                                                                                ",
"                                                                                                                                ",
"                                                                                                                                ",
"                                                                                                                                ",
"                                                                                                                                ",
"                                                                                                                                ",
"                                                          .          X                                                          ",
"                                                         X.          XX                                                         ",
"                                                        X.   oOOOO    X+                                                        ",
"                                                       XX.  oOOoOOO   X++                                                       ",
"                                                      XX.  oooO    O   X++                                                      ",
"                                                      XX. oooo      O  X.+                                                      ",
"                                                     @X.. OOo          X..+                                                     ",
"                                                     @... oOo          X..+                                                     ",
"                                                     @... oOO          X..+                                                     ",
"                                                     @... ooO          X..+                                                     ",
"                                                     @...  oO          X..+                                                     ",
"                                                     @X... oOo      O X...+                                                     ",
"                                                     @X...  ooO    O  X...+                                                     ",
"                                                     @XX...   OOOOO  X....+                                                     ",
"                                                      @XX..          X...+                                                      ",
"                                                      @@XX..        X....+                                                      ",
"                                                       @XXX...    XX....+                                                       ",
"                                                        @XXX..XXXX.....+                                                        ",
"                                                         @XXX.........+                                                         ",
"                                                          @XXX.......+                                                          ",
"                                                           @@XX....++                                                           ",
"                                                        #    @XX...    X                                                        ",
"                                               oo       $%  @@XXX...  XX       oo                                               ",
"                                              ooo       %%%XXXXXXX....XX       oOO                                              ",
"                                              oOO      @X#X###XXXX.XXX..X       oO  o                                           ",
"                                              OOO      @XXX#######XX#...X                                                       ",
"                                              OO       @X#X%XXX##XXXX#..X                                                       ",
"                                                       @#X%##XX&*.XXX#..X                                                       ",
"                                                      @#X%##XX&&**.XXX#..=                                                      ",
"                                          oo          @X%##X#X&***..XX#..=                                                      ",
"                                          Oo          @X%##XX&&****.XXX#.=                                                      ",
"                                                     #X%###X#&&****.XXXX#.X                                                     ",
"                                                     #X%##XX&&&*****.XXX#.X                                                     ",
"                                                     X%###XX&&OO**&&.XXXX#X                                                     ",
"                                                     %%###XXOOOO&&&&..XX#oo=                                                    ",
"                                                    #%%%%%XXXOOO&&&...##oooX                                                    ",
"                                                    ##%XX%%%XOOO&&&.##XXoOOX                                                    ",
"                                                    ##X%%XXX%%OO&&##XXX#OOOX                                                    ",
"                                                   =###XX%##XXOO&&XXXX#.OO..=                                                   ",
"                                                   =oo###X%##XXO&XXXX#......X                                                   ",
"                                                   #oOO###X%##XXXXXX#....X..X*                                                  ",
"                                                  &%#oO##o#X%%#X#XX#....X...X**                                                 ",
"                                                 &&%########XX%XXX#.......X.XX**                                                ",
"                                                &&%%##########X#X#.XX.....XXXX***                                               ",
"                                               &&&%#=###X#####X#X#.......X.XXX***                                               ",
"                                              &&&&%#==##X#######X#....X..X.X#X****                                              ",
"                                             &&&&&%##==#########X#.X..X.X..XXXX****                                             ",
"                                            &&&&&&%X############X#...X....#XXXX*****                                            ",
"                                            OO&&&%%###X#######X###X.......XXXXXX***&                                            ",
"                                            OOO&&%########X##XX#X#X......#XXX##X**&&                                            ",
"                                             OOO=%###X##X#X#X#X#X#..X.X...XX#XXX&&&&                                            ",
"                                             OOO%%######X#X##XX#*#...X..#XXXXXX=&&&&                                            ",
"                                             OOO%######X###==XX&**..X...#XXXXXX=X&&                                             ",
"                                              OO%#######X#X=#X&&***X...#XXXXXXXXX&&                                             ",
"                                              O%%############X&&***X...#XXXXXXXXXX&                                             ",
"                                              O%############X&&&****...XXXXXXXXXXX&                                             ",
"                                              %=#####X######X&&&***&...XXXXXXXXXXX                                              ",
"                                              =#####X######=XOOO&&&&..#XXXXXXXXXXX                                              ",
"                                              =#####X#######XXOOO&&..#.XXXX#XXXXX=X                                             ",
"                                             X########X###=#XXOOO&&..#XXXXXXXXXXXXX                                             ",
"                                             X##=#X##########X#OO&#...#XXXXXXXXXXXX                                             ",
"                                            XX#=XX##X#X####=#X#XO.#.XX.XXXX#XXX.XXXX                                            ",
"                                           XX#XX####X#####XX#X#XX.##.#X#XXXXXXXXXXX=X                                           ",
"                                          XX##XX#X#X####X#X=XX#XX.###XXXX.XXX#XXXXX==X                                          ",
"                                         XX###X####XX####X==XX#X###.X..XXXXXXXX#XX====X                                         ",
"                                        XX###XX##X#X######==XX#XX.#.XXXXXXXX#XXX#X#====X                                        ",
"                                       XXX###XXX##XX##XX##==XX#X..#.XXX.XX.#.#XXXX======X                                       ",
"                                      XXX######X#XX###X###==XX#X..#XXXXXXXXXXXXXX========X                                      ",
"                                     XXX=#############X###==XX#X..#XXXXXXXXXXXXX#=========X                                     ",
"                                    XXX=####X############==XXX#X..#XXXX.XXXX#XXXXX=========X                                    ",
"                                   XXX==####X############===XX#X..#XXXXX.XXXXXXX============X                                   ",
"                                  XXX===###XXX#########X=#==X@@@@@@XXXXX.XXXXXXXX============X                                  ",
"                                 XX=====#X#X###########=##==X==@@@@XXXXX.XXX.XXX==============X                                 ",
"                                XX======###XX###X#####=X#===X==@@@@XXXXXX..XXXX================X                                ",
"                               XX========X#X#####X#######==X====@@@@XXXXXXXXXXX=================X                               ",
"                              XX=========XXX#####X######=X=X====@@@@XXXXXXXXXX===================X                              ",
"                              X==========XX#X#########X#===X===@@@@@XXXXXXXXXX===================X                              ",
"                              X=========XX#######XX####===XX===@@@@@XXXX.XXXXX==================XX                              ",
"                              X=========X##X#######X###===XX==@@@@@@XXXXXXXXX===================XX                              ",
"                                     ===X=##X#######X==#==XX==@@@@@@XXXXXXXXX==============                                     ",
"                                          ===##########==XX==@@@@@@@@XXXXXXXX=========                                          ",
"                                              =########=XXX==@@@@@@@@XXXXXXX======                                              ",
"                                                 X#####=XXX==@@@@@@@@XXXXXXX===                                                 ",
"                                                     ####XX==@@@@@@@@XXXXXX                                                     ",
"                                                         XX===@@@@@@@XX                                                         ",
"                                                           ===@@@@@@@                                                           ",
"                                                           ===@@@@@@@                                                           ",
"                                                           @==@@@@@@@                                                           ",
"                                                             =@@@@@                                                             "
};
