/* XPM */
static char *result[] = {
/* columns rows colors chars-per-pixel */
"128 128 15 1 ",
"  c magenta",
". c #100000",
"X c #526B63",
"o c #638C84",
"O c #524218",
"+ c #292931",
"@ c #8CADA5",
"# c #B59463",
"$ c #E7CE9C",
"% c white",
"& c #ADCEC6",
"* c #394A4A",
"= c #846331",
"- c #9C6342",
"; c #312100",
/* pixels */
"                                                                                                                                ",
"                                                                                                                                ",
"                                                                                                                                ",
"                                                                                                                                ",
"                                                                                                                                ",
"                                                                    ....                                                        ",
"                                                                 ...XooX..                                                      ",
"                                                         .........OOO+X@@X..                                                    ",
"                                                        .Xo@@oXOO#$%$O.+X@@X.                                                   ",
"                                                       .o@&&&%%%X.##O...+o&@.                                                   ",
"                                                       ..XXXXo@&%X*......*o&X.                                                  ",
"                                                       .oooooXXo&&X*.OO#$.X@o...                                                ",
"                                                      .o@@@@@ooXo&@X.O$%$#.o@X.+..                                              ",
"                                                     .@@&&&&@@ooXo&X*.OO==.X@o.***..                                            ",
"                                                    .@&&%%%%&&@ooX@@X+.....+oo.++*X*.                                           ",
"                                                   .@&&&%%%%%%@@oXX@o*.#$%$OXo*.++*X*.                                          ",
"                                                  .o@@&&%%&%%&&@@o*o@X.=##O.*oX.+++*X.                                          ",
"                                                  .@&&%&&%%&%@@&@oXX@o+.=O..+Xo*.+++X*.                                         ",
"                                                 .@&&%&&&&&&&&@@ooo*o@*......*oX.+++*X.                                         ",
"                                                 .@&&%&&&%&%%&@@@oo*X@X+..O=#+Xo*.+++X*.                                        ",
"                                                .&&@@&%@o&&%&&@&@@oX*@o*.O$%$#+oX.+++*X.                                        ",
"                                                .%&@@&&@X&@@&@o@@@@o*o@X+.OO==+Xo+.+++X*.                                       ",
"                                               .o@@o@@@o@@&&@oX@o@@o*X@o*......*o*.+++*X.                                       ",
"                                               .ooo@@&&@o@&@@oo@@o@oX*@@X+.....+oX.++++X*.                                      ",
"                                              .X@@%&&@@@@o@@@@@@o@ooX*o@o*..#%$OXo*.+++*X.                                      ",
"                                              .o@@&&@o&&@oo@@&&@Xoooo*X@@X.$%#O.*oX.+++*X*.                                     ",
"                                              .@@@@@oo&@@@o@o@@o*X@oXX*o@o.=#=..+Xo.++++*X.                                     ",
"                                             .oo@@oo&@@@@o@ooXX**X@ooX*X@o*.=...+*o*.+++*X.                                     ",
"                                             .o@@o@@@@o@o@&@oooXXooooX**o@*+.....+X*.+++*X.                                     ",
"                                             .o@@@@o@@@@ooo@oXooo@@oo***o@X*....==*X*.+++X*.                                    ",
"                                             .o@&@oo@o@o@oooX*oooooooo**XooX+.O%$=+X*.+++*X.                                    ",
"                                             .@&@oooooooooXX*Xo@oooooo*X*XXo*O%#=.+*X*.++*X.                                    ",
"                                            .o@@oXooo&@@o@oooo@@XoXXooXX*X@oX*OO..+*XX.+++X.                                    ",
"                                            .o@@oXoo@&@oX@oooo@oX@@oXXXX*X@@X*.....+*X+.++*+.                                   ",
"                                            .oo@oXoo@@oXXooooooX*o@o*XX***o@o*.#$%#.+X*.++*+.                                   ",
"                                            .o@oXoooooXXoooooooooooX+*X*+*XooX*.#=..+XX.++*+.                                   ",
"                                           .o@&@ooooooooooo@oXoooX*++*X*++X@@oX+=...+*X+.+**.                                   ",
"                                           .@&&@@@oooo@oooo@o*XoooX**XXX*+o@&@o*....++X*.+**.                                   ",
"                                           .o@@@@oooo@@oXoo***XXXXoXXXX***Xo&&@X+...+*XX+.+*.                                   ",
"                                           .@&%&&@@oo@o*XooX*XX@@@ooXXXX**oo@&@o*...+*Xo+.**.                                   ",
"                                          .Xoooooo@@oX**Xo@@oXoo@ooXXXX***Xoo@ooX..++ooo+.**.                                   ",
"                                         .X@&%&@XXX@@@oXo@@oXXooXXXXXXXX***Xooooo*.+*XoX+.**+.                                  ",
"                                         .XXXXXo@@oXXo@oXo@X*XXX**Xoo*XXX*+XXo@@XX**XXo**.**+.                                  ",
"                                       ..X@&@ooXXX@@oXo@oXoX*X**+**o@oX*X*+*XXX**XXXXoX*+.***.                                  ",
"                                       .o&%%%&&@oXXX@oXo@oX**XoX**XoXXX***.+X*XXXXXXo*+*+.***+.                                 ",
"                                      .o@ooooXX&&@oXX@oXooo*XXooXX**X**+**+.***ooX*X*X*+.+*+**.                                 ",
"                                      ...#$$##=XX&@o*XooXXoo**XXooXX*++****++**X++ooX+*+.**+**.                                 ",
"                                     ..#$$$$$$--=X&@o*Xoo*XooX***XoooXXoooX*+++++*XX+++.+**+**+...                              ",
"                                    .#$$$$$$$-$##=X&@o*XXo**XoooX********XooX*++++++++.+*X++*+*.oo.                             ",
"                                   .$$$$$$$$-$$$$#=*&@o**XoX**XXooooooXX**XXoXX*++++++**X*+**+*..Xo.                            ",
"                                  .$$%%$%$$$$$$$###=*&@X**XooX**XXXXXXooXX**XooX******XX*+.*+**+..X@.                           ",
"                                  .$%%%%%%$$$$$$#$-O-*@oX**XXooo******XXooX**XXoooXXXX*++.+.+*+*.+.o@.                          ",
"                                 .$%%%%%%$%$$$$$$$#=O*o@oX***Xooooo*++++*XoXX..******+++.+*.**+*.+.X@o.                         ",
"                                 .$%%%%%%%%$$$$$####O++o@oX***XXooooooX*++*XX**..++++...+**.*++*+.+.o@.                         ",
"                                .$%$$%%%%%%%$$$$$$##=+O+o@@oX*****XXXXooX*++*X**+....+++**.+*++**.+.X@o.                        ",
"                              ...$$#;#%%%%%%$$$#$$##-O.O+XX@@oXX**++++*XooX+.*XX*+++++***.+**+**+*...o@.                        ",
"                            ..+*.$%$=#%%%%%$$$$$####=O.-O++Xo@@ooXXXXX+++XoX*.**XXXXXX**.+**++*++*.+.X@X.                       ",
"                           .+***.=$$=#%%%%%%$$$#####=O;-OOO+XXo@@@@oooooX++XX*..******..+*X*++*++**..+@o.                       ",
"                           .*+++.;==;#%%%%%$$$$$###==O.-OO;*++XXXXXXXXXoooX+XX*+......+*XX*++**+***...o@X.                      ",
"                           .*+++.=;;;$%%%%$$$##-##==OO.-O+XX**++++******XXoo+XXX**++**XXX*++.*++*+**..X@X.                      ",
"                           .*+++.$==#$%%%%%$$$$#-OOOO;--O+ooXX****XXXXXX++*Xo+*XXXXXXXX**++.+*++*++*..+@*.                      ",
"                            .+++.%##$%%%%$%$$$###=-OO;-O;o&@o@Xo@@@oooooX*++*o++******++...+**+*+++*...o*.                      ",
"                            .+++.$%%%%%%%%$$#$$##==O;#-+o&@oXXoooXoXXXXXXXX*+*X*++++++..+****++*+*+**..oX.                      ",
"                            .+++.$%%%%$%%$$$$-##=-OO.-O+@ooooXX**X****++**XX*+*XX********XX*+.+*+**+*..*o.                      ",
"                            .+++.=$%%%%$$#$#$#-OOOO;-O+&@ooo***X*oXXX***++*XX*+*XXXXXXXXX**+..*++++**.*@o.                      ",
"                            .++++.#$$$$$$$#####=OO;-O+&@ooX*ooooXooXXX****+*XX*+**XXXXX***++.+*+++++*.@ooX.                     ",
"                           .+++++.=#$#$$######==OO.O;&@ooX*oo@o@oooXXX**XX*+*XX*+++****+++..+*++++++**.o@o.                     ",
"                         ..+*++++..#########==-OO;-+&@oXX*o@@oXXo@oXoXXXXXX*+*XX***+++....+**+++++**+*.@&@X.                    ",
"                       ..+**+++++..=##=##=====OO;-O+@oX**o@ooXXoo@ooX*XXXXX*++**XXX*********+++++++*+*.@&@o.                    ",
"                 ..  ..***+++++++.-.========OO;.-O+@oX*+o@oo@oXo@oooXXXoXXX**++***XXXXXXXX*++++++*+++*.@&&@.                    ",
"                .@o. .*++++++*++*.+-..===OO...#-O;@oX**+@oX@ooo@&@XooXXXooX**++++********+++++++++++**.@&&@X.                   ",
"                .@X+..*+++++*****.@+--.....$$#-++@oX**+@oXX@@@oo@XXoXXXooXXX*++*+++++++++++++++++++*+*.@&&@o.                   ",
"                .o*+...*+++*****X.o@++-##$$;+++&@oX**+@oX@@&&@o@@ooooXo&@oXX**+**++++++++++++++++++*+*.@@&@o.                   ",
"                .o*+...**+*****XXX.o&&+++++&&&@oX***+@oX@@&$&@@@@&@@ooo@oXo***+**++*++*+++++++++++++**.o@@oo.                   ",
"                 .o+..+.*****XXXXX.Xo@&&%%%&@oXX**++@oX@&@&$$&@&&$@@@oooXX**X****+***+**+++++++++++++O.oo@oo..                  ",
"                 .o+..+.*****XXXXo.+XXo@@ooXX***++@@oX@&$&&$$&@&$$@$@oo@@XXXX****+*X*+++*++**+++++++;O.oooo.+.                  ",
"                 .X*.+++..**XXXXoX.o+*XXXXX**++@@@ooX@@&$&$$&&&$$@$$$@o@#XX=X**X**XXX*+*X++*+++++++;O.Xooo.+*.                  ",
"                 .XX.+**++..Xoooo*..o@*****@@@@oooXX@&&$$&$$&@&$@@$$@@@##X==XX*XX**XO***++++++++++;;O.*X..+XX.                  ",
"                  .o.+++*X*+........@o@&&&@ooooXXX@&&$&$$$$&@@$$oo$#@o@#=====XX***XXO**+***++++;++;;O...++Xoo.                  ",
"                   .*+++*oX*+...    .@o@&@o@@@@$$$&$$$$$$$$&@@$$o@$@oo@#===XXXX***X=OOO*+**+;++;++;O.+++*Xo@X.                  ",
"                   .*+++*o@X**.     .$&&&&$$$%%$$$$$$$$$$$$$@$$$$$#@o@####=X*X=X**X=OO*++*++;+;;+;;O.XXo@@@oX.                  ",
"                   .*+++*X@&@o.      .$$$$########$$$$#$#$$$$$$#$#$@@####==X*X=X**XOOO*++*++++;;;;OO.**Xo@@oX.                  ",
"                   .*++++Xo@&@.      .#$$#$$%%%%$$###===##$$#$$$###@####==X*X==X*X=OOO*+*O*+++;;;;O.*++*o@@oX.                  ",
"                   .*++++XX@&&.       .$#$$$$%$$$$$$$$$#==O###$#$########=XX=XXXX====O***OO;++;;;OO.*+++X@@oX.                  ",
"                   .*++++*Xo&@.       .##$$$###======#####=OO####$####=#====X*X=====OOO*O;;;;;;;OO..*+++X@@oXX.                 ",
"                    .*+++*X@&.         .##=#$$$######===O=##=OO=#####=======XX====O==OOOOO;;;;;O..  .*++*o@oXX.                 ",
"                    .*+++*X@&.          .=#$$$%%%$$$$$###OO=##=O==#=##=#========O==OOOO;O;;;;...    .*+++o@oXX.                 ",
"                    .*+++*X@&.           .O$$=======##$$$$#OO=#=O;=======#===O=OO=OO;O;O;;;..O.     .*+++o@oXX.                 ",
"                    .*+++*X@&.            .$=$$$$$##====##$$#OO#=O;;;=========O==OO;O;;;...;O.      .*+++X@oXX.                 ",
"                    .*+++*X@&.             .$$$%%$$$$$##==##$##OO==OO;;;.==O=OOOO;;;....;;...       .*+++XooXX.                 ",
"                    .*+++*X@&.             ..$$====##$$$##==O==##O;;==OO;...........;;;...;.        .*+++XoXXX.                 ",
"                    .*+++*o@&.              .$=$$$$==##$$$##=OOO==OO;;;..;;;;;;;;;;....;;..          .*++*oXXX.                 ",
"                    .*+++*o@&.               .=$%%%$#O=##$$$$#==OO;;OOO;;..........OO;;..O.          .*++*oXXX.                 ",
"                    .*+++*o@&.                .$$%%$$#OO==#######===;;;........OOOO;;..;O=.          .*++*oXX.                  ",
"                    .*+++*o@&.                 .$$$%$$$#OOOO=====###====OOOOOOO;;;...;;O=.           .*++*oXX.                  ",
"                     .+++*X@@.                 .$$$$$$$$$##=OOOOO===OOOO;;;;;.....;;;OO==.           .*++*XXX.                  ",
"                     .*++*X@@.                  .$$$$$$$######===O;;;;;;.....;;;;;;;;OO=.            .*++*XXX.                  ",
"                     .*++*X@@.                   .#$$#######======OOOOOOOO;;;;;;;;;;OO=.             .+*+*XXX.                  ",
"                     .*++*X@@.                    .#######====OO..........;;;;;;;;;OO=...             .*++XXX.                  ",
"                     .*+++*o@.                     .#=======O...O####=$##;..;;;;;;O...;;;.            .*++*XX.                  ",
"                      .*++*o@.                      ..====...OO#$$$$$$#%$#==.;;;;..=OOO;;;.           .*++*XX.                  ",
"                      .*++*o@.                       .....=O##$$$$$$$#=%%$##=....==OOOO;;;.           .*++*XX.                  ",
"                      .X++*X@@.                     .#$$OOO#$%%$$$####=$$$$$##===OOOOOO;;;;.          .*++*XX.                  ",
"                       .*++X@@.                    .#$$$$$$%;O$$#==.....#$$$$$##==OO.....;;.          .*++*X.                   ",
"                       .*++X@@.                    .O%%$$$%;O=$#=O.##$$=.##$####==O.=###=.;.          .*++*X.                   ",
"                       .X++*o@.                    .=%$$$$%O==$=O.#$$...=.#####==O.=#$...=..           .*+*X.                   ",
"                        .*+*o@.                    .=$$$$$$==$#=.#$%.....=.####==O.=$.......           .*+*X.                   ",
"                        .*+*X@.                    .$#====#$$#=O.#$%.....=.=##===;.=$.......           .*+*X.                   ",
"                        .X++X@&.                   .#=$$$$=##=O;.=#$.....=.#O===O#.O#.......           .*+XX.                   ",
"                         .*+X@&.                    .$####$==O##.O=#.....=.#$OOO#=.O=#...=.            .*+XX.                   ",
"                         .*+*o&.                    .#====#$$$$$#.OO#...#.=##$$#==O.OOOO=.             .*+X.                    ",
"                         .X+*X&.                    .==OO;;=###$$O.OO==#.O=####===O;......             .*+X.                    ",
"                          .X+X@.                     .===OO;OO==##O.....;========OOO;;;;.              .*+X.                    ",
"                          .X+*@&.                    .O====O;.OO=#=O;;;;O=======OOO;;;;.               .*+X.                    ",
"                           .X+o&.                     .OO===O;.OO===O;;O=====OOOO;;;...                .*+X.                    ",
"                           .X+X&.                      .OOOOO;;..OOOOOOOOOOOO;;;;...                   .*+X.                    ",
"                            .X*@.                       ..OOOO;;...;;;OOO;;;;....                      .**.                     ",
"                            .X+@.                         ....O;;;....;;;....                          .**.                     ",
"                             .*o.                             ...........                              .*X.                     ",
"                             .X*o.                                                                     .*X.                     ",
"                              .*X.                                                                      ..                      ",
"                              .X*.                                                                                              ",
"                               ..                                                                                               ",
"                                                                                                                                ",
"                                                                                                                                ",
"                                                                                                                                ",
"                                                                                                                                ",
"                                                                                                                                "
};
