/* XPM */
static char *result[] = {
/* columns rows colors chars-per-pixel */
"128 128 15 1 ",
"  c magenta",
". c #100000",
"X c #526B63",
"o c #638C84",
"O c #524218",
"+ c #846331",
"@ c #B59463",
"# c #E7CE9C",
"$ c white",
"% c #394A4A",
"& c #8CADA5",
"* c #292931",
"= c #ADCEC6",
"- c #312100",
"; c #9C6342",
/* pixels */
"                                                                                                                                ",
"                                                                                                                                ",
"                                                                                                                                ",
"                                                                                                                                ",
"                                                                                                                                ",
"                                                                       .....                                                    ",
"                                                            ...........XoooX..                                                  ",
"                                                       .....OO+@#$$O.%%XXoo&&X.                                                 ",
"                                                      .Xo&oX..@#$#+.%%****%Xo&X.                                                ",
"                                                     .o&==$$$=..O+.%%*.....*o=&..                                               ",
"                                                    .oXXXXo&=$&X*..**.-OO--.%o=X..                                              ",
"                                                    .XooooXXo&=o%..*.-OO.O@#.X=o.*..                                            ",
"                                                   .Xo&&&&ooXo&=o*..--..O#$$#.&&%.**.                                           ",
"                                                  .X&&====&oo%X&=o%.-.O-..O++.o&X.*%%.                                          ",
"                                                 .X&==$=$$==oo%X&&X*.........*X&o.***%.                                         ",
"                                                 .&====$$$$$&oX%X&o%.+#$#O.-.*%o&%.**%X.                                        ",
"                                                .o&====$$$$$=&oX%o&X.@#@O.-...*X&X.***X%.                                       ",
"                                                .&=&=====$$=&=&o%X&o*O+....-..*%Xo.***%X.                                       ",
"                                               .o==$$======&&=o&X%o&%....--....*%o%.***XX.                                      ",
"                                               .&==$===$=$$=&&&&o%X&X*..-O-...+@*oX.***%X.                                      ",
"                                              .o=&&==&o==$==&=&&&X%&o%.-O-..O#$#+Xo.****X.                                      ",
"                                              .$=&&$=&X=&&=&o&&&&o%o&X*.-.--.-O+@%o*.***X%.                                     ",
"                                             .%=&o&&&o&&==&oX&o&&o%X&o%..-OO-..-O%o%.***%X.                                     ",
"                                             .Xoo&&=&&o&=&&oo&&o&oX%&&X*.........*oX.****X.                                     ",
"                                             .oo$=&=&&&o&&&&&&o&ooX%o&o%.+@##+.-.*Xo*.***X%.                                    ",
"                                            .%&&$=&o==&oo&&=&oXoooo%X&&X.#$$O.-O-.Xo%.***%X.                                    ",
"                                            .X&&=&oo==&&o&o&o%%X&oXX%o&o.+@+.-O-..%oX.***%X.                                    ",
"                                            .oo&&oo&=&&o&ooXX%Xo&ooX%X&o%.+.-OOO-.*Xo*.**%X.                                    ",
"                                            .&o&o&&=&&o&=&oooXoooooX%%&&%*...---...%o%.***X%.                                   ",
"                                            .o&&&&&&&&o&ooXXoooo&oo%%%o&X%.-----.O+.oX.***X%.                                   ",
"                                            .o&oo&o&o&oooo%Xoooooooo%%XooX*.-OO.O@#OXo*.**%X.                                   ",
"                                            .&=&ooo&ooooXX%ooooooooo%X%Xoo%.--.O$$@+%o*.**%X.                                   ",
"                                           .%&=&Xooo=&o&oooo&&ooXXooXX%o&oX..--..OO.*o%.**%X.                                   ",
"                                           .X&&oXoo&=oX&oooo&oX&&oXXXX%X&&X*........*oX.**%X.                                   ",
"                                           .oo&XXoo&&XXooooooX%o&o%XX%%%o&o%.@#$@O.O.XX*.**X*.                                  ",
"                                           .o&oXoooooXoooooooooooX*%X%*%oooX%.$@O.O+.%X*.**X*.                                  ",
"                                          .X&=&oooooooooo&&XoooX%**%X%**X&&oX*+...+-.%X%.**%*.                                  ",
"                                          .o==&&&oooooooo&oX%Xooo%%XX%%*X&=oo%*.O-+-.*X%.**%*.                                  ",
"                                          .&&&&&oooo&&XoooX%%XXXXXXXXXX*o&=&oX%..+-O.*%X*.*%%.                                  ",
"                                         .&=$$=&oXXo&o%Xoo%%XX&&&oXXX%%%Xo&=&oX*.OO..*%X*.*%%.                                  ",
"                                         .Xoooo&&&oXX%%oo&ooXoo&ooXXXX%%Xoo&&oo%*.O.**Xo%.*%%.                                  ",
"                                        .&=$$=&XXX&&&oXo&&XXXooXXXXXXXX%%Xoooooo%*.*%Xoo%.*%%.                                  ",
"                                       .&XXXXXo&&&XXo&oXo&X%XXX%%Xo&X%XX%%XXo&&XXX%%XXoX*.*%%.                                  ",
"                                       .Xo&&ooXXXo&&Xo&oXoo%X%%*%%o&oX%X%*%XXX%XXXXXooX%%.*%%.                                  ",
"                                      .X=$$$$==&oXXo&Xo&o%X%XXX%%XoXXX%%%.*X%XXXXXXooXX%*.*%%*.                                 ",
"                                      .=ooooX&===&oXo&Xooo%%XooXX%%X%%*%%*.*%XXo%X%XX%**..*%%*.                                 ",
"                                     .o..@@@++X&==&o%oo%XooX%%XooXX%**%%%%*.*%%*X*oX%X%*.*%%%*.....                             ",
"                                     ..@#####@;;X&=&X%Xo%%XooX%%%oooXooooX%*.***%%X%***.**%*%%*.%Xo.                            ",
"                                    .@#######;#@+%&=oX%XoX%%XoooX%%%%%%XoooXX%*******..*%%%*%%*...%o.                           ",
"                                   .@#######;@##@+%o=oX%XoXX%%XXooooXX%%%XooXXX%***..*%%%X*%%*%.**.%o.                          ",
"                                  .@#$$#$#######@@+%&=oX%XooXX%%XXXXoooXX%*XoooXX%%%%XXXX*.%%*%*.**.X&.                         ",
"                                  .#$$$$$$######@#OO%&&oX%XoooXX%%%%%XXoooX**%XoooXXXX%%*.*%*%%*.**.%&&.                        ",
"                                 .@$$$$$$#$######;@+O%&&oX%XXoooooo%****%XoX%*.*%%%%%**..*%**%*%.*%*.o&.                        ",
"                               ...#$$$$$$$$#####@@@+O*Xo&oX%%XXooooooXX%**%XX%*...**....*%%.*%*%*.X*.X&o.                       ",
"                             ..*.@$##$$$$$$$####@#@@+**Xo&oX%%%%%XXXooooX%**%XX%**..****%%.**%*%*.*%.*&&.                       ",
"                           ..*%%.##@-@$$$$$$######@@+O.**X&&oXX%%%****%XooX*.*%XXXXXXXX%%.**%%*%%*.**.o&o.                      ",
"                          .%%%%%.#$#+@$$$$$####@@@@@+O.O**Xo&&&oXXXX%%***Xoo%..*%XXXXX%*.**%%**%%*.**.X&&.                      ",
"                          .%****.+##+@$$$$$$###@@@@@+O-;OO**Xoo&&&&&ooXX%**XX%*..*****..**%%%**%*%*.*.%o&.                      ",
"                          .%****.-++-@$$$$$#####@@@+;O.;OO*%**XXXXXXXooooX%*%XX%*.....*%%XX%**%%*%*.*.*X&X.                     ",
"                          .*****.+---#$$$$###@@;@@@+OO.;O*XX%%****%%%%%XXooo**%XXX%%%%XXXX%*.*%*%*%*.*.%oX.                     ",
"                           .****.#++@#$$$$$####@;OOOO-;;OOooXX%%%%XXXX%***%Xo%**XXXXXXXX%**.*%%*%*%*.%.*o%.                     ",
"                           .****.$@@#$$$$#$###@@@+;OO-;O*o=&o&Xo&&oooooX%%**%oo%**%%%%**...*%%**%**%.%..oX.                     ",
"                           .****.#$$$$$$$$##@##@@@;O.@;*o=&oXXooXXoXXXXXXX%%*%XXX%**....**%%%%*%%**%*...Xo.                     ",
"                           .****.#$$$$#$$####;@@++OO.;O*&&oooXX%%X%%***%XXXX%*%%XX%%%%%%%%XX%**%*%%%*..%%o.                     ",
"                           .****.+#$$$$##@#@#@;OOOO-;O*=&ooo%%%X%oXXX%%**%XXX%**%XXXXXXXXXX%*.*%*%**%..o&oX.                    ",
"                          .******.@#######@@@@@+O+-;O-=&&oX%XooXXoXXXX%%%**%XXX%**%XXXXX%%**.*%****%%.o&o&o.                    ",
"                        ..*%*****.+@#@##@@@@@@+;OO.O*&=&oX%o&oo&oooXoX%%XX%*%%XX%%**%%%***..*%%*****%*.o&=&%.                   ",
"                      ..*%%******..@@@@@@@@@+++OO-;*&=&XX%o&&oXXo&oXoX%XXXX%**%XXX%%**....*%%%****%%*%.o&=&X.                   ",
"                ..  ..%%%********..+@@+@@+++++OO-;O*=&X%%o&ooXXo&oooX%%XXXX%***%%XXXX%%%%%%%%******%*%.o&==o.                   ",
"               .&o. .%******%%%**.;.++++++++OO-.;O*&oX%*o&oo&oXo&oooXXXoXXX%%****%%XXXXXXX%******%*%*%.o&==&%.                  ",
"               .&X*..%*****%%%%%%.*;..+++OO...@;O*&oX%%*&oX&oooo=&XooXXXooXX%******%%%%%%********%**%%.o&==&X.                  ",
"               .o%*...%***%%%%%XX.&*;;.....##@;**&oX%%*&oXX&&&oo&oXoXXXooXXX%**%*******************%%%.oo&=&o.                  ",
"               .o%*...%**%%%%XXXX.o&**;@@##-***=&oX%%*&oX&&==&o&&ooooXo=oooX%**%%**%***************%*%.Xoo&oo.                  ",
"                .o*..*.%%%%XXXXXoX.o==*****===&oX%%%*&oX&&=#=&&&&=&&ooo&oXo%%%*%%**%**%*************%%.Xooooo..                 ",
"                .o*..*.%XXXXXXXXo%.Xo&==$$$=&oXX%%**&oX&=&=##=&==#&&&oooXXX%X%%%%*%%%*%%************%O.%oooo.*.                 ",
"                .X%.*%*..%XXXXooX*.*XXo&&ooXX%%%**&&oX&=#==##=&=##&#&oo&&XXXX%%%%%%X%***%**%%*******-O.%ooX.*%.                 ",
"                .XX.**%**..XoooX*..o*%XXXXX%%**&&&ooX&&=#=##===##&###&o&@XX+X%%XX%XXX%*%X**%*******-O..%*..*%X.                 ",
"                 .o.**%%X%*....... .o&%%%%%&&&&oooXX&==##=##=&=#&&##&&&@@X++XXXXX%%XO%%%**********--O....**XXo.                 ",
"                  .%**%XoX%*...    .&o&===&ooooXXX&==#=####=&&##oo#@&o&@+++++XX%%%XXO%%*%%%****-**--O.***%X&&o.                 ",
"                  .%**%Xo&X%%.      .&o&=&o&&&&###=########=&&##o&#&oo&@+++XXXX%%%X+OOO%*%%*-**-**-O.*XXoo&&&X.                 ",
"                  .%***%Xo=&o.      .#====###$$#############&#####@&o&@@@@+X%X+X%%X+OO%**%**-*--*--O.*X%%X&&oX.                 ",
"                  .%****%X==&.       .####@@@@@@@@####@#@######@#@#&&@@@@++X%X+X%%XOOO%**%****----OO.*%**X&&oX.                 ",
"                  .%****%X==o.       .@##@##$$$$##@@@+++@@##@###@@@&@@@@++X%X++X%X+OOO%*%O%***----O..*%**%&&oX.                 ",
"                  .%****%X==%.        .#@####$#########@++O@@@#@#@@@@@@@@+XX+XXXX++++O%%%OO-**---OO..*%**%o&oX*.                ",
"                  .%****%o==.         .@@###@@@++++++@@@@@+OO@@@@#@@@@+@++++X%X+++++OOO%O-------OO.  .%**%o&oX*.                ",
"                   .%***%o&=.          .@@+@###@@@@@@+++O+@@+OO+@@@@@+++++++XX++++O++OOOOO-----O..   .%***o&oX%.                ",
"                   .%***%o&=.           .+@###$$$#####@@@OO+@@+O++@+@@+@++++++++O++OOOO-O----...     .%***X&oX%.                ",
"                   .%***%o&=.            .O##+++++++@@####@OO+@+O-+++++++@+++O+OO+OO-O-O---..O.      .*%**X&oX%.                ",
"                   .%***%o&=.             .#+#####@@++++@@##@OO@+O---+++++++++O++OO-O---...-O.        .%**XooX%.                ",
"                   .%***%o&=.              .###$$#####@@++@@#@@OO++OO---.++O+OOOO---....--...         .%**%ooX%.                ",
"                   .%***%o&=.              ..##++++@@###@@++O++@@O--++OO-...........---...-.          .%**%ooX*.                ",
"                    .%**%X&=.               .#+####++@@###@@+OOO++OO---..----------....--..           .%**%oXX*.                ",
"                    .%**%Xo=.                .+#$$$#@O+@@####@++OO--OOO--..........OO--..O.           .%**%oXX.                 ",
"                    .X***Xo=%.                .##$$##@OO++@@@@@@@+++---........OOOO--..-O+.           .%**%oXX.                 ",
"                    .X***%o=X.                 .###$###@OOOO+++++@@@++++OOOOOOO---...--O+.            .%**%oXX.                 ",
"                    .X***%o=o.                 .#########@@+OOOOO+++OOOO-----.....---OO++.            .%**%oXX.                 ",
"                     .%**%X=&.                  .#######@@@@@@+++O------.....--------OO+.             .%**%XX%.                 ",
"                     .%**%X&=.                   .@##@@@@@@@++++++OOOOOOOO----------OO+.              .%**%XX*.                 ",
"                     .X**%X&=.                    .@@@@@@@++++OO..........---------OO+...             .%**%XX.                  ",
"                     .X***Xo=.                     .@+++++++O...O@@@@+#@@-..------O...---.            .%**%XX.                  ",
"                      .%**%o=.                      ..++++...OO@######@$#@++.----..+OOO---.           .%**%XX.                  ",
"                      .X**%X&.                       .....+O@@#######@+$$#@@+....++OOOO---.           .%**%XX.                  ",
"                      .X**%X&.                      .@##OOO@#$$###@@@@+#####@@+++OOOOOO----.          .%**%X%.                  ",
"                       .%*%X&o.                    .@######$-O##@++.....@#####@@++OO.....--.           .%*%X*.                  ",
"                       .X**%&&.                    .O$$###$-O+#@+O.@@##+.@@#@@@@++O.+@@@+.-.           .%*%X.                   ",
"                       .X**%o=.                    .+$####$O++#+O.@##...+.@@@@@++O.+@#...+..           .%*%X.                   ",
"                        .%*%o=.                    .+######++#@+.@#$.....+.@@@@++O.+#.......           .%*%X.                   ",
"                        .X**X=.                    .#@++++@##@+O.@#$.....+.+@@+++-.+#.......           .%*%X.                   ",
"                        .X**X=&.                   .@+####+@@+O-.+@#.....+.@O+++O@.O@.......           .%*X%.                   ",
"                         .%*%o=.                    .#@@@@#++O@@.O+@.....+.@#OOO@+.O+@...+.            .%*X*.                   ",
"                         .X*%X=.                    .@++++@#####@.OO@...@.+@@##@++O.OOOO+.             .%*X.                    ",
"                         .X**X=.                    .++OO--+@@@##O.OO++@.O+@@@@+++O-......             .%*X.                    ",
"                          .X*%=.                     .+++OO-OO++@@O.....-++++++++OOO----.              .%*X.                    ",
"                          .X**o=.                    .O++++O-.OO+@+O----O+++++++OOO----.               .%*X.                    ",
"                           .X*X=.                     .OO+++O-.OO+++O--O+++++OOOO---...                .%*X.                    ",
"                           .X*%=.                      .OOOOO--..OOOOOOOOOOOO----...                   .%*X.                    ",
"                            .X*&.                       ..OOOO--...---OOO----....                      .%X.                     ",
"                            .X*o.                         ....O---....---....                          .%X.                     ",
"                             .X%X.                            ...........                              .%X.                     ",
"                             .%%o.                                                                      ..                      ",
"                              .%%.                                                                                              ",
"                               ..                                                                                               ",
"                                                                                                                                ",
"                                                                                                                                ",
"                                                                                                                                ",
"                                                                                                                                ",
"                                                                                                                                ",
"                                                                                                                                "
};
