/* XPM */
static char *result[] = {
/* columns rows colors chars-per-pixel */
"128 128 15 1 ",
"  c magenta",
". c #100000",
"X c #526B63",
"o c #638C84",
"O c #524218",
"+ c #846331",
"@ c #E7CE9C",
"# c white",
"$ c #B59463",
"% c #394A4A",
"& c #8CADA5",
"* c #292931",
"= c #ADCEC6",
"- c #312100",
"; c #9C6342",
/* pixels */
"                                                                                                                                ",
"                                                                                                                                ",
"                                                                                                                                ",
"                                                                                                                                ",
"                                                                                                                                ",
"                                                                                                                                ",
"                                                                             .....                                              ",
"                                                         ........          ..XoooX..                                            ",
"                                                    .....O+@@##$.         .%XXXXo&&X.                                           ",
"                                                   .Xo&oX..$#@+.         .%XX%***%o&X.                                          ",
"                                                  .o=####=&..O..     .....%*.....*X=&%.                                         ",
"                                                  .&XXo&=#=&X*..     .@@$+...-....%o=%*.                                        ",
"                                                 .XXooXXXo=&o%*.      .++..-..O@@$.X=o%..                                       ",
"                                                .Xo&&&&ooXo=&o%*.     .*.*.--..+##@.&&%...                                      ",
"                                               .Xo&====&&o%o=oX%.   ....%.--O--.O++.o&X*.*.                                     ",
"                                              .Xo&=#=###=&o%o&oX*...$#$.*..-OO--...*X&o*.**.                                    ",
"                                              .o&=====###=oX%o&o%.O$#$.**.---OOO-.*%o&X..*%*.                                   ",
"                                             .o&=====#=###&oX%&&X.+@$.+O..-----OO-.*X&o*.*%%.                                   ",
"                                             .&=======###==&o%X&X*O$.O+....-O-..--.*%o&*.**X%.                                  ",
"                                            .o==&==========&oX%&o%.....*.----OO-....*X&%.**%X.                                  ",
"                                            .&==##==#=##=&&&&o%X&X*..**..-----OO-.-++*&X.**%X%.                                 ",
"                                            .&==#==o==#==&=&&oX%&o%..**.--OO-..-.O@##+Xo.***XX.                                 ",
"                                           .o=&&==&X=&&=&o&&&&X%o&X*.**..--OOO-...-+$@%o.***%X*.                                ",
"                                           .#=&&#=&&&==&oX&&o&o%X&o%.**.....-O+O--..-O*&.***%X%.                                ",
"                                           .=&o&&&oo&=&&oo&&o&oX%&&X*...+$@+.-.-OO-..*%&*.***X%.                                ",
"                                           .oo&&=&&&o&&&&&&o&ooX%o&o%*O$@#O.---..---..%&%.***XX.                                ",
"                                          .Xo#=&=&&&&o&&&=&oXoooX%&&o%.@#+.-OO+O-.....X&X.***XX.                                ",
"                                          .%&##=&&==&&o&o&o%%X&oX%o&&X*$+..--OO++OO-..X&X.***%X.                                ",
"                                          .X&==&o&==&ooooXX%Xo&oo%Xo&o%......--OOOOO-.%&o.***%X*.                               ",
"                                          .oo&&oo&&&o&==oooXoooooX%o&&X*..---....--...*o&.***%X*.                               ",
"                                          .&o&&o&=&&&o=&XXoooo&oo%%X&&o%..-OOO----.O+O.o&.***%X*.                               ",
"                                          .o&&&&&=&&oo&o%Xoooooooo%%o&&X*.--OO++O.$@#@Oo&*.**%X*.                               ",
"                                          .o&oo&&&o&oooX%ooooooooo%%X&&o%...-----.O#@O+X&*.**%X%.                               ",
"                                          .&=&o&o&o=&o&oooo&&ooXXooX%o&&oX.......-..OO.%o%.**%X%.                               ",
"                                          .o=&&ooo&=oX&oooo&oX&&oXXX%Xo&&X*...O@$......*oX.**%X%.                               ",
"                                          .%&&oXoo=&XXooooooX%o&o%XX%%oo&o%.+@#$.....O+.oo.**%XX.                               ",
"                                          .X&&XXoo&oXoooooooooooX*%X%*X&&oX%.#@.OO..O$+.Xo*.*%XX.                               ",
"                                         .X&&&oXoooooooo&&XoooX%**%X%*%o&&oX*$.--O+O$O-.Xo*.*%XX.                               ",
"                                         .&===&&oooooooo&oX%Xooo%%XX%%*X&=&o%..O--O+--O.%o%.*%XX.                               ",
"                                         .oo&oXXooo&oXoo&oX%XXXXXXXXXX*X&==&X*.-OO-OO+O.%o%.*%X%.                               ",
"                                        .=##==&oXXo&o%XooX%%X&&ooX%X%%%%o&=&X%*.--O++O-.%oX.*%X%.                               ",
"                                       .&Xooo&&&&oXX%%oo&ooXoo&oo%%XX%%*Xo&&oX%*..-OO-.*%oX*.*X%.                               ",
"                                       .X##==&XXo&&&oXo&&XX%ooXXX%XXXX%*%XoooXX%**....*%Xoo*.*X%.                               ",
"                                      .o&oXXo&&&XXXo&&XXoX%%%X%%XooX%XX%*XXo&ooXX%%%%%XXXoX*.*%%.                               ",
"                                      .&XXXXXXX&&&&XXo&&XoooX%*%Xo&oX%X%*%XXoXXoooXXXXoooX%*.*%%.                               ",
"                                      .o=#####=&XXo&&Xoo&X%XooX%%ooXX%%%*.X%X%XXoXoXoooX%**.**%%*.                              ",
"                                      .=ooooXX===&XXooXXX&o%%XooXX%%X%%*%..**%Xo%X%XXX%**.*.*%%%*.                              ",
"                                     .o..+$$++XX==&X%ooo%XXoX%%XooXX%**%%*..**%%*X*oX%X%*..*%%%%*....                           ",
"                                     ..+$@@@$$+;XX=&X%ooo%%XooX%%%oooooooX%*..*%*%%X%%%**.*%%%%%%.*%X.                          ",
"                                     .$@@@@@@@;@$+%=&X%XooX%%XoooX%%%%XXooooX%******%%*..*%%*%%%%...%o.                         ",
"                                    .$@@@@@@@;@@@$+%=&X%XoooX%%XXooooX%%%%%XoooX%***...*%X%%*%%%%*.*.%o.                        ",
"                                   .$@#@@#@@@$@@$$$+%=&X%XooooX%%%XXXoooXX%**%XooooooXXXX%%**%*%%*.**.Xo.                       ",
"                                   .@####@#@@@@@@$@OO%&&X%XoooooX%%%%%XXoooX%**%XooXX%%%%%*.*%*%%%.**.%&o.                      ",
"                                  .$########@@@@@@;++O%&&o%%XooooooX%****%XoX%*.*%%%%%%**..*%%*%%%.*%*.o&.                      ",
"                                ...@#######@@@@@@$$$;O*Xo&oX%%XXooooooXX%**%XX%*...***...*%%%**%%%.*X*.X&X.                     ",
"                             ...*.$#@@#######@@@@$@$$+**Xo&&oX%%%XXooooooX%**%XX%*.....**%%%**%*%%*.X%.*&o.                     ",
"                          ...*%%%.@@$-$#####@@@@@@@$++O.*%X&&&oX%%****%XXooX*.*%XXXXXXXX%%*..*%*%%*...*.o&X.                    ",
"                          .%%%%%%.@#@+$######@@@$@$$$+O.O**%Xo&&ooXX%%***%Xoo%..*%XXXXX%*...*%%*%%%.**..X&o.                    ",
"                          .%***%%.+@@+$#####@@@@$$$$$;O-OOO**%Xo&&&&&&oX%**%XX%*..........*%%%**%%%.*%*.%o&.                    ",
"                          .*****%.-++-$######@@@@$$$$+O-OOO****%%XXXooooXX%**%XXX%%*...**%XX%**%%*%*.X%.*X&%.                   ",
"                           .*****.+---@####@#@$@;$$$+OO.;OO%X%*****%%%%Xoooo%**%%XXXX%%%XXX%*.*%%*%*.oX..%&X.                   ",
"                           .*****.@++$@#####@@@$$;OOOO-;;O*XoXX%%%%XXX%***%Xoo%***%%XXXXX%**.**%*%*%*.X*.*&X.                   ",
"                           .*****.#$$@####@#@@@$$$+;+O.;O*Xo&o&Xo&&oooooX%***%ooX%*.........**%%*%*%*.%*..o%.                   ",
"                           .*****.@#######@@@$@@$$$+O-$;*o===&XooXXoXXXoooX%%*%XooX%%*******%%X%*%**%.%*..oX.                   ",
"                           .*****.@####@##@@@@;$$++OO.;O*&=&oooX%%X%%***%XooX%**%%XXXX%%%%%%XX%*%%*%%*...%Xo.                   ",
"                           .*****.+@###@@@$@$@$;OOOO-;O*&=&ooX%%X%XXX%%%**%XXXX%***%XXXXXXXXX%**%%*%%*...o&oX.                  ",
"                           .******.$@@@@@@@$$$$$;OO-;O*&=&oX%%XoXXoX%X%%%%**%XXXX%*.*%XXXX%%**.*%***%%.%o&o&o.                  ",
"                         ..*******.+$@$@@$$$$$$+;OO.O*&=&oX%Xo&o&ooXXXX%%X%%*%%XXX%*...****...*%%***%%.o&o&&o*.                 ",
"                     ....*%%******..$$$$$$$$$+++OO-;*&=&XX%o&&oXXo&oXoX%XX%X%**%XXXX%%*....*%%%%***%*%*.&o&=&%.                 ",
"                ..  .*%%%%********..+$++$$+++++OO-;O*=&X%%o&ooXXo&oooX%%XXXX%***%%XXXX%%%%%%%%%****%*%*.oo&=&X.                 ",
"               .oX. .%*******%****.;.++++++++OO-.;O*&oX%*o&oo&oXo&oooXXXoXXX%%****%%XXXXXXX%******%*%%*.oo&==o*.                ",
"               .&%*..%******%%%%%%.*;..+++OO...$;O*&oX%%*&oX&oooo=&XooXXXooXX%******%%%%%%*******%%*%*%.oo&==&%.                ",
"               .&%*..%****%%%%%%XX.&*;;.....@@$;**&oX%%*&oXX&&&oo&oXoXXXooXXX%**%****************%***%%.Xo&==&%.                ",
"               .o%*..*%**%%%%%XXXX.o&**;$$@@-***=&oX%%*&oX&&==&o&&ooooXo=oooX%**%*******************%*%.Xoo&&&X.                ",
"               .%o*...%%%%%%XXXXXX*.o==*****===&oX%%%*&oX&&=@=&&&&=&&ooo&oXo%%**%%**%**%************%*%.XXoo&oX.                ",
"                .o*..*.XXX%XXXXXoX%.Xo&=####=&oXX%%**&oX&=&=@@=&==@&&&oooXXX%X%%%%*%%%*%%************%O.%Xoooo%..               ",
"                .o*.***..XooXXooo%*.*XXo&&ooXX%%%**&&oX&=@==@@=&=@@&@&oo&&XXXX%%%%%%X%***%**%%*******-O..%XX%*.%.               ",
"                .X%.*%%**..XoooX**..o*%XXXXX%%**&&&ooX&&=@=@@===@@&@@@&o&$XX+X%%XX%XXX%*%X**%%******-O...*%*.*%X.               ",
"                 .X.**%%%**.......  .o&%%%%%&&&&oooXX&==@@=@@=&=@&&@@&&&$$X++XXXXX%%XO%%%**********--O.*....*XXo.               ",
"                  .%**%XX%%**..     .&o&===&ooooXXX&==@=@@@@=&&@@oo@$&o&$+++++XX%%%XXO%%*%*%****-**--O.****%X&&o.               ",
"                  .%**%XoooX%.       .&o&=&o&&&&@@@=@@@@@@@@=&&@@o&@&oo&$+++XXXX%%%X+OOO%*%%*-**-**-O.**%XXo&&&X.               ",
"                  .%***%X&=&o.       .@====@@@##@@@@@@@@@@@@@&@@@@@$&o&$$$$+X%X+X%%X+OO%**%**-*--*--O.**X%*X&&&X.               ",
"                  .%****%o==o.        .@@@@$$$$$$$$@@@@$@$@@@@@@$@$@&&$$$$++X%X+X%%XOOO%**%****----OO..*%**%&&&X.               ",
"                  .%****%X==X.        .$@@$@@####@@$$$+++$$@@$@@@$$$&$$$$++X%X++X%X+OOO%*%O%***----O. .*%**%o&&X.               ",
"                  .%****%X==%.         .@$@@@@#@@@@@@@@@$++O$$$@$@$$$$$$$$+XX+XXXX++++O%%%OO-**---OO. .*%**%o&&X.               ",
"                  .%****%o==.          .$$@@@$$$++++++$$$$$+OO$$$$@$$$$+$++++X%X+++++OOO%O-------OO.  .*%***o&&X.               ",
"                   .%***%o==.           .$$+$@@@$$$$$$+++O+$$+OO+$$$$$+++++++XX++++O++OOOOO-----O..   .*%***X&oX.               ",
"                   .%***%o==.            .+$@@@###@@@@@$$$OO+$$+O++$+$$+$++++++++O++OOOO-O----...     .*%***X&oX.               ",
"                   .%***%o==.             .O@@+++++++$$@@@@$OO+$+O-+++++++$+++O+OO+OO-O-O---..O.       .*%**X&oX.               ",
"                   .%***%o==.              .@+@@@@@$$++++$$@@$OO$+O---+++++++++O++OO-O---...-O.        .*%**X&oX.               ",
"                   .%***%o==.               .@@@##@@@@@$$++$$@$$OO++OO---.++O+OOOO---....--...         .*%**%&oX.               ",
"                   .%***%o==.               ..@@++++$$@@@$$++O++$$O--++OO-...........---...-.          .*%**%&oX.               ",
"                    .%**%o&=.                .@+@@@@++$$@@@$$+OOO++OO---..----------....--..           .*%**%ooX.               ",
"                    .%**%o&=.                 .+@###@$O+$$@@@@$++OO--OOO--..........OO--..O.           .*%**%ooX.               ",
"                    .X***X&=.                  .@@##@@$OO++$$$$$$$+++---........OOOO--..-O+.           .*%**%ooX.               ",
"                    .X***X&=X.                  .@@@#@@@$OOOO+++++$$$++++OOOOOOO---...--O+.            .*%**%oX%.               ",
"                    .X***Xo=o.                  .@@@@@@@@@$$+OOOOO+++OOOO-----.....---OO++.             .%**%oX%.               ",
"                     .%**%o=&.                   .@@@@@@@$$$$$$+++O------.....--------OO+.              .%**%oX*.               ",
"                     .X**%o&=.                    .$@@$$$$$$$++++++OOOOOOOO----------OO+.               .%**%oX*.               ",
"                     .X**%o&=.                     .$$$$$$$++++OO..........---------OO+...              .%**%XX.                ",
"                      .%**Xo=o.                     .$+++++++O...O$$$$+@$$-..------O...---.             .%**%X%.                ",
"                      .X**Xo=&.                      ..++++...OO$@@@@@@$#@$++.----..+OOO---.            .%**%X%.                ",
"                      .X**%o&=.                       .....+O$$@@@@@@@$+##@$$+....++OOOO---.            .%**%X*.                ",
"                       .%*%Xo=.                      .$@@OOO$@##@@@$$$$+@@@@@$$+++OOOOOO----.           .%**XX*.                ",
"                       .X**Xo=.                     .$@@@@@@#-O@@$++.....$@@@@@$$++OO.....--.           .%**XX.                 ",
"                       .X**%X&=.                    .O##@@@#-O+@$+O.$$@@+.$$@$$$$++O.+$$$+.-.           .%**X%.                 ",
"                        .%*%Xo=.                    .+#@@@@#O++@+O.$@@...+.$$$$$++O.+$@...+..           .%*%X%.                 ",
"                        .X**%o=.                    .+@@@@@@++@$+.$@#.....+.$$$$++O.+@.......           .%*%X*.                 ",
"                        .X**%X=.                    .@$++++$@@$+O.$@#.....+.+$$+++-.+@.......           .%*%X*.                 ",
"                         .X*%X=.                    .$+@@@@+$$+O-.+$@.....+.$O+++O$.O$.......           .%*X%.                  ",
"                         .X**%&=.                    .@$$$$@++O$$.O+$.....+.$@OOO$+.O+$...+.            .%*X%.                  ",
"                          .X*%&=.                    .$++++$@@@@@$.OO$...$.+$$@@$++O.OOOO+.             .%*X*.                  ",
"                          .X**o=.                    .++OO--+$$$@@O.OO++$.O+$$$$+++O-......             .%*X*.                  ",
"                           .X*X=.                     .+++OO-OO++$$O.....-++++++++OOO----.              .%*X.                   ",
"                           .X*%o.                     .O++++O-.OO+$+O----O+++++++OOO----.               .%*X.                   ",
"                            .X*X=.                     .OO+++O-.OO+++O--O+++++OOOO---...                .%*X.                   ",
"                            .X*%&.                      .OOOOO--..OOOOOOOOOOOO----...                   .%%X.                   ",
"                             .X*o.                       ..OOOO--...---OOO----....                      .%X.                    ",
"                             .X*%.                         ....O---....---....                          .%X.                    ",
"                              .%*o.                            ...........                              ...                     ",
"                               .%%.                                                                                             ",
"                                ...                                                                                             ",
"                                                                                                                                ",
"                                                                                                                                ",
"                                                                                                                                ",
"                                                                                                                                ",
"                                                                                                                                ",
"                                                                                                                                "
};
