/* XPM */
static char *result[] = {
/* columns rows colors chars-per-pixel */
"128 128 15 1 ",
"  c magenta",
". c #100000",
"X c #B59463",
"o c #524218",
"O c white",
"+ c #E7CE9C",
"@ c #846331",
"# c #526B63",
"$ c #638C84",
"% c #8CADA5",
"& c #ADCEC6",
"* c #394A4A",
"= c #292931",
"- c #312100",
"; c #9C6342",
/* pixels */
"                                                                                                                                ",
"                                                                                                                                ",
"                                                                                                                                ",
"                                                                                                                                ",
"                                                                                                                                ",
"                                                                                                                                ",
"                                                       ..                                                                       ",
"                                                  .....X.                           .....                                       ",
"                                                ..oXOO+@.                         ..#$%%%..                                     ",
"                                             .......X+@.                        ..#$%%##$%$.                                    ",
"                                            .$%&%%$#..o.                     ...#$#*=..=#%&#.                                   ",
"                                           .$&OOOOO%$#=.                    .++X#*=.....=$&$*.                                  ",
"                                           .%###$%&O%$*=.                    .@.==..o+OX.*&%*..                                 ",
"                                          .*#$$$###$OO$*=.      ..           ..==.o-.@+OX=%&#..                                 ",
"                                         .*$%%%%$$**$%O$#*.  ...+.           .==.--oo..X+.%&#=..                                ",
"                                         .#$%&&&&%&%*$%O$#=..@O+.           .#**.o-----...$&$=..                                ",
"                                        .#$%&O&&OOO&$*$%O$*.@O+o.           .$#.-ooo......$%$=.=.                               ",
"                                        .$%&O&&&&OOO%$*#%%#=.+X.        ....o...---oooo-.=#%$*.=.                               ",
"                                        .%%&&&&&&O&O&%$*#%$*=X.         .XXX@o.-@--..---.=*$%*.==.                              ",
"                                       .#%&&&&&&&&&&&&%#*#%$*..          .-o@..-o@@--.....=$%*.=*.                              ",
"                                       .$%&%&&&&&&&&%%%$**$%#=.           ...=.--oooo-..-o=#%#.=*.                              ",
"                                       .%&&O&&&O&O&&%&%%#*#%$*=.          .==.-@-----.o+OOo*%#.=*=.                             ",
"                                       .%&&O&&$&&O&%$%%%$**$%#*.         .=#*.-o@@-....@X+@=%#.==*.                             ",
"                                      .#%%%&&%#&%%%$#%%$%#*#%$#=.  ..... .#$*.-ooo@@o--.-@o*%$.==*.                             ",
"                                      .$%%%O&%%%&&%$$%%$%$**$%$*=..oX+X@.=#*.-@--o---oo-...*%$.==#=.                            ",
"                                      .O&$%%%$$%&%%%%%$%$$#*#%%#*.oXOOo..**..-o@@-........=#%$.==#=.                            ",
"                                      .&%$%&%%%$%%%%%&%$#$$**$%$#=.+O@.@o.*.--ooo@@o----..=$%$.==#*.                            ",
"                                      .#$O&%&%%%%$$%$%$**%%#*#$%$*=X@..o@.=.@--oo---ooo--.=$%#.==*#.                            ",
"                                      .*%OO&%%&&%%$$$##*#$%$**$%%#*......=.-o@@--.........=%%#.==*#.                            ",
"                                      .#%&&%$%&&%$&&$$$#$$$$#*#%%$#=...=*=.--oo@@oo---....=%%#.==*#.                            ",
"                                      .$$%%$$%%%$%&%##$$$$%%$**$%%$*=..**=.----------.....*%%*.==*#.                            ",
"                                      .%$%%$%&%%%$%$*#$$$$$$$#*#$%%#*=.==.--oo--.....XOO+o*%%*.==*#.                            ",
"                                      .$%%%%%&%%$$$#*$$$$$$$$$**#%%$#*=.=.----oooo--.o@X+@*%%*.==*#.                            ",
"                                      .$%$$%%%$%$$%$$$$%%$$##$#**$%%$#*=.......-oooo-..oo.#%%=.==#*.                            ",
"                                      .%&%$%$%$$$$%$$$$%%#%%$##**#%$%$#*=..-X+.--------...#%%=.==#*.                            ",
"                                      .$&%%$$$&&$#$$$$$%$*%$$*##**$%%%$#*.@+OX..........o.#%$=.==#=.                            ",
"                                      .#%%$#$$&%$#$$$$$$#$$$#=*#*=#$%%%$#*.O+.oo-...-@X@o.$%$.===#=.                            ",
"                                      .*%%##$$$##$$$$$$%$$$#*=##**=#$%&%$#=X.-o@@@XXX@ooo.$%$.===#.                             ",
"                                      .#$%%%$#$$$$$$$$%%##$$$#***#*=#$%&%$*..--oo@@ooo---.$%#.==*#.                             ",
"                                      .$%&&&%$$$$$$#$$%$#*#######*#=*#$&%%#=..-oooo---o@.=$$#.==*#.                             ",
"                                      .&OOO&&%%$##$*#$$#**#%%$$*##**=*#%&%$#*=..---@X@@o.*$$#.==*#.                             ",
"                                     .&$##$###%%%$##$$%$$#$%$$#**##*==*$%&%#$#*=..-o@o-.=#$$#.==##.                             ",
"                                     .$#$&O&&%##$%%$##$$#*$$###*####*==#$%%%$$##*=.....=*$$##.==#*.                             ",
"                                      .%&OO&&&%%###%%$##$**#**#$$#*##=.*#$%$%%$#$#**==**#$$$*.=*#*.                             ",
"                                     .%########%%%%##%%$#$$##*=*#$%$#*=.**##$$$%%$###$#$$$$#*.=*#=.                             ",
"                                     .#$&OOOO&%$##$%%#$%%#*$$##**$$##*#=.=#*#**#$#$$$$$$$##*=.=*#=.                             ",
"                                     .$&$$$#$%&&&%##$$##$%$**$$##***#**==..==*#$*#####$*==*=.==*#=.                             ",
"                                    .$&#@@@@@##%&&%#*$$#*#$$#**$$##**==**=..==*#=#*$*##**=..==*##=....                          ",
"                                    .$.@XXXXX@@**%&%#*$$#**#$$#**$$$$$$##*==..=*=*=#***===.==**#*=.=*#.                         ",
"                                     .X+++++++oX@*%&%#*$$##**#$$#****#$$$$$#*=...===**=...==******...*$.                        ",
"                                    .X+++++++;X+X@*%&%#*$$$##**#$$$$#*****#$$$$#*=.....==*##*=****.==.*$.                       ",
"                                   .X+O++O+++;+++X@*%&%#*$$$$##***##$$$##**==*#$$$####$$$#**==****.===.#$.                      ",
"                                   .+OOOOO+O++++XXXo=%&%#*$$$$$##****##$$$##*===*#$$$$##**=.=**=**.===.*%$.                     ",
"                                  .XOOOOOOO++++++;o@@=%&%$**#$$$$$##*===*#$$$*=..==****==..=***=**=.=*=.$%.                     ",
"                              .....+OOOOOOOO++++++XX@o=$%%$#**#$$$$$$#**===*#$$*=........=****==**=.=#=.#%#.                    ",
"                           ...===.XO++OOOOO++++++XXX@@==$%%%$#**##$$$$$$#**=.*###*=...==*###*==****.*#*.=%$.                    ",
"                         ..=*****.++X-XOOOOOO++++++XX@o.=*#%%%$#*====*#$$$$#=..=*########*==.=**=**....=.$%#.                   ",
"                         .=*=****.+O+@XOOOOO++++++XX@;o.o==*#$%%$$#**===*#$$$*=...=*###*=...=***=**.**=..#%$.                   ",
"                         .*====**.@++@XOOOOOO+++XXXXX@o-ooo==*#$%%%%%$#*==**#$$*==........==***==**.*#*=.*$%.                   ",
"                         .=======.-@@-XOOOOO++++XXXXX@o.ooo====**###$%%$#*===*####**=====**##*==***=.$#*.=#%*.                  ",
"                          .======.@---+OOOOOO+++;XXX@oo-;oo*#*=====****#$$$#*=..=*##########*===*=*=.#$*=.*%#.                  ",
"                          .======.+@@X+OOOO+++XXX;oooo-o;o=#$##****###*==*#$$$#*....=*###**==.=**=**..$*=.=%#.                  ",
"                          .======.OXX+OOOOOO+++XXX@;@o.;o=#$%$%#$%%$$$$#*===*#$$##*=.........=**==**=.#*=..$*.                  ",
"                          .======.+OOOOOOO++++++XXX@o-;;=#$%&%#$$##$###$$$#*==*#$$#**=======***#=*=**.*==..$#.                  ",
"                          .======.+OOOOOOOO++X;XX@@oo.Xo=%&&%$$#**#**===*#$$#*==*#$$$##########*=*=**.==..*#$.                  ",
"                          .======.@+OOO+O+++X+X;oooo-Xo=$&%$$#**#*###***==*#$$#*===*#########**=**=**=....$%$#.                 ",
"                          .*======.X++++++X+XXXX;oo-;o=$&%$#**#$##$#*#****==*####*=...==****=..=**==*=..*$%$%$.                 ",
"                        ..=*======.@X+X++XXXXXX@@o@.o=$&%$#*#$%$%$$#*#***#**==*####*=...==...=***===**.*$%$%%$=.                ",
"                    ....==*=======..XXXXXXXX@X@@oo-;=$&%##*$%%$#$$$$#$#**#***===*#####*=..==**#*===***.##%$%&%*.                ",
"                .. .******========..@X@X@X@@@@@oo.;o=&%#**$%$$###%%$$#**##*#*=====**#####**###*====*=*=.#$$%&%#.                ",
"               .$#..*=============.;.@@@@@@@@oo.-;o=%$#*=$%$$%$#$%$$$###$###**======**#####**=====**=*=.*$$%&%$=.               ",
"               .%*=.*========*****.=;..@@@oo...X;o=%$#**=%$#%$$$$&%#$$###$$##*=========****======**==**.*$$%&&$=.               ",
"               .%*=.=*====********.%=;;.....++X;==%$#**=%$##%%%$$%$#$$##$$###*==*================*====*.=#$%&&%*.               ",
"               .%*=..*==*******##*.$%==;XX++-===&%$#**=%$#%%&&%$%%$$$##$&$$$#*==*================*==*=*.=#$%%&%*.               ",
"               .#$=..=*#****#####=.#%&&=====&&&%$#***=%$#%%&+&%%%%&%%$$$%$#$**==*===*==*============*=*..*$$%%$#.               ",
"               .*$=...=*$######$#=..$%&OOOOO&%$##**==%$#%&%&++&%&&+%%%$$$###*#=***==**=**============*o..*#$$$#*.               ",
"                .$=.==..*$$##$$$*=..=##$%%$$##***==%%$#%&+&&++&%&++%+%$$%%####******#*=*====*========-o..*##*=...               ",
"                .#*.=**=..#$$$#==. .$=*#####**==%%%$$#%%&+&++&&&++%+++%$%X##@#**##**##*=*#==**======--o..===..=*.               ",
"                 .#.==***=.......   .$%*****%%%%$$$##%&&++&++&%&+%%++%%%XX#@@##*##*##o****===*======-o.=....=*#$.               ",
"                  .*==*##**==..     .%$%&&&%$$$$###%&&+&++++&%%++$$+X%$%X@@@@@##****#o**===========--o.====*#$%$.               ",
"                  .*==*#$$$#*.       .%$%&%$%%%%+++&++++++++&%%++$%+%$$%X@@@####***#@ooo*=**=-==-==--o.=*##$%%%$.               ",
"                  .*===*$%%$#.       .+&&&&+++OO+++++++++++++%+++++X%$%XXXX@#*#@#**#@oo*==**=-=--=--o..=*=*$%%%$.               ",
"                  .*====#%&%$.        .++++XXXXXXXX++++X+X++++++X+X+%%XXXX@@#*#@#**#ooo*==*==-=-----o..=*==#%%%$.               ",
"                  .*====*$&&*.        .X++X++OOOO++XXX@@@XX++X+++XXX%XXXX@@#*#@@#*#@ooo*=*o*===----o. .=*==#%%%$.               ",
"                  .*====*#&&.          .+X++++O+++++++++X@@oXXX+X+XXXXXXXX@##@####@@@@o***oo-==---oo. .=*==*%%%#.               ",
"                   .*===*#&&.          .XX+++XXX@@@@@@XXXXX@ooXXXX+XXXX@X@@@@#*#@@@@@ooo*o-------oo.  .=*==*$%%#.               ",
"                   .*===*$&&.           .XX@X+++XXXXXX@@@o@XX@oo@XXXXX@@@@@@@##@@@@o@@ooooo-----o..    .=*==$%%#.               ",
"                   .*===*$&&.            .@X+++OOO+++++XXXoo@XX@o@@X@XX@X@@@@@@@@o@@oooo-o----...      .=*==$%%#.               ",
"                   .*===*$&&.             .o++@@@@@@@XX++++Xoo@X@o-@@@@@@@X@@@o@oo@oo-o-o---..o.       .=*==#%$#.               ",
"                   .*===*$&&.              .+@+++++XX@@@@XX++XooX@o---@@@@@@@@@o@@oo-o---...-o.        .=*==#%$#.               ",
"                   .*===*$&&.               .+++OO+++++XX@@XX+XXoo@@oo---.@@o@oooo---....--...         .=*==#%$#.               ",
"                   .=*==*$&&.               ..++@@@@XX+++XX@@o@@XXo--@@oo-...........---...-.          .=*==#%$#.               ",
"                    .*==*$&&.                .+@++++@@XX+++XX@ooo@@oo---..----------....--..           .=*==*%$#.               ",
"                    .#==*$%&.                 .@+OOO+Xo@XX++++X@@oo--ooo--..........oo--..o.            .*==*%$#.               ",
"                    .#===#%&.                  .++OO++Xoo@@XXXXXXX@@@---........oooo--..-o@.            .*==*$$#.               ",
"                    .#===#%&#.                  .+++O+++Xoooo@@@@@XXX@@@@ooooooo---...--o@.             .*==*$#*.               ",
"                    .**==#$&$.                  .+++++++++XX@ooooo@@@oooo-----.....---oo@@.             .*==*$#*.               ",
"                     .#==*$&%.                   .+++++++XXXXXX@@@o------.....--------oo@.              .*==*$#=.               ",
"                     .#==*$%&.                    .X++XXXXXXX@@@@@@oooooooo----------oo@.               .*==*$#=.               ",
"                     .**=*$%&.                     .XXXXXXX@@@@oo..........---------oo@...              .*==*$#.                ",
"                      .#==#$&#.                     .X@@@@@@@o...oXXXX@+XX-..------o...---.             .*==*#*.                ",
"                      .#==#$&%.                      ..@@@@...ooX++++++XO+X@@.----..@ooo---.            .*==*#*.                ",
"                      .**=*$%&.                       .....@oXX+++++++X@OO+XX@....@@oooo---.            .*==*#=.                ",
"                       .*=*#$&.                      .X++oooX+OO+++XXXX@+++++XX@@@oooooo----.           .*==*#=.                ",
"                       .#==#$&.                     .X++++++O-o++X@@.....X+++++XX@@oo.....--.           .*==##.                 ",
"                        .*=*#&#.                    .oOO+++O-o@+X@o.XX++@.XX+XXXX@@o.@XXX@.-.           .*==#*.                 ",
"                        .*=*#%&.                    .@O++++Oo@@+@o.X++...@.XXXXX@@o.@X+...@..           .*==#*.                 ",
"                        .#==*$&.                    .@++++++@@+X@.X+O.....@.XXXX@@o.@+.......           .*=*#=.                 ",
"                         .*=*#&.                    .+X@@@@X++X@o.X+O.....@.@XX@@@-.@+.......           .*=*#=.                 ",
"                         .#==#&.                    .X@++++@XX@o-.@X+.....@.Xo@@@oX.oX.......           .*=#*.                  ",
"                          .*=*%%.                    .+XXXX+@@oXX.o@X.....@.X+oooX@.o@X...@.            .*=#*.                  ",
"                          .#=*$&.                    .X@@@@X+++++X.ooX...X.@XX++X@@o.oooo@.             .*=#=.                  ",
"                           .*=#&.                    .@@oo--@XXX++o.oo@@X.o@XXXX@@@o-......             .*=#=.                  ",
"                           .#=*&.                     .@@@oo-oo@@XXo.....-@@@@@@@@ooo----.              .*=#.                   ",
"                            .*=$.                     .o@@@@o-.oo@X@o----o@@@@@@@ooo----.               .*=#.                   ",
"                            .#=#%.                     .oo@@@o-.oo@@@o--o@@@@@oooo---...                .**#.                   ",
"                             .*=%.                      .ooooo--..oooooooooooo----...                   .**.                    ",
"                             .#=$.                       ..oooo--...---ooo----....                      .*#.                    ",
"                              .*=$.                        ....o---....---....                          ...                     ",
"                               .**.                            ...........                                                      ",
"                                ...                                                                                             ",
"                                                                                                                                ",
"                                                                                                                                ",
"                                                                                                                                ",
"                                                                                                                                ",
"                                                                                                                                ",
"                                                                                                                                ",
"                                                                                                                                "
};
