/* XPM */
static char *result[] = {
/* columns rows colors chars-per-pixel */
"128 128 15 1 ",
"  c magenta",
". c #100000",
"X c #B59463",
"o c #E7CE9C",
"O c #846331",
"+ c #524218",
"@ c white",
"# c #394A4A",
"$ c #526B63",
"% c #638C84",
"& c #8CADA5",
"* c #ADCEC6",
"= c #292931",
"- c #312100",
"; c #9C6342",
/* pixels */
"                                                                                                                                ",
"                                                                                                                                ",
"                                                                                                                                ",
"                                                                                                                                ",
"                                                                                                                                ",
"                                                                                                                                ",
"                                                  ....                                                                          ",
"                                              ....XoO.                                 ......                                   ",
"                                             .+Xo@@X.                                ..#$%&&%.                                  ",
"                                          .......XO.                                .#$%%$$%&%.                                 ",
"                                         .&**&%$=...                           .....#%%#=..#$*%.                                ",
"                                        .%*@@@@&%$==.                          .ooX=$#=.....#*&#.                               ",
"                                        .&$$%&*@@&%#=.                          .O.$#=.+o@X.#**$.                               ",
"                                       .#$%%%$$$%@@%#=.     ..                  ..=#=.-.Oo@X=**$..                              ",
"                                       .%&&&&%$##&&@%$#.  ..o.                  .#$=.++-..Xo.&*%..                              ",
"                                      .#&*****&%$#&&@%$=..X@O.                 .#%#.+----....&*%=..                             ",
"                                      .$&*****@@*$#&&@%#.X@o.                  .$$..++-......%*&=..                             ",
"                                     .#%*@*****@@&$#%&@$=.oO.              ........--+++++-.=%*&=.=.                            ",
"                                     .$&******@@@@&%#%&%#=X.               .XXXO+..+-..----.=$&*#.=.                            ",
"                                     .%************&$#%&%#..                .-+O..+OO+-......#%*#.==.                           ",
"                                    .#&*&********&&*%$#%&$#.                 ...=.--+++-...-+=$*#.=#.                           ",
"                                    .$**********&**&&%#$&%$#.               .=#=.-+----.+Oo@@+#*$.=#.                           ",
"                                    .%**@**&@*@*&*&%&%$#%&%$=.              .#%#.-+O+-...+O@oO=*$.=#.                           ",
"                                    .%*&**&&*%&&&%$%&%&$#%&%$=.  .....     .=%$=..-+OO+--.-XO+#*$.=#=.                          ",
"                                    .&&&&@*%$$**&%%&&&%%#$%&%#=..+X@O.     .#%#.-..-+++++-...=&&$.=#=.                          ",
"                                    .@*%&*&%%&*&&&&&%&%%$#%&&$#.+X@o+.......$$=.+O--....---..=&&#.=$#.                          ",
"                                    .@&%&&&&&%&&&&%*&%$%%#$%&%$=.ooX. .+OX+.$#.-++OO+--......#&&#.=$#.                          ",
"                                    .*%%**&&&&&%&&%*%##&&$#$%&%$=+X.   .+OO.#=.--+--+++----.=#&%=.=$$.                          ",
"                                    .&&&@@*&**&&%%%%$#$&%%##$%&%$=.     .+.==.+O+--...-+++-.=$&%=.=$$.                          ",
"                                    .%$&@*&&**&&%**%%%$%%%$##%&&%#=.    ..=#=.-+OOO+--......=$&%.==$$.                          ",
"                                    .$%%*&&%&*&%&*&$$%%%%&%$#$&&%%#=... .=##...--+++++-.....#%&%.==$$.                          ",
"                                    .#&%&%%%*&&&%&%#$%%%%&%%##%&&%$#=.-..##=.-++--.....X@@o+#%&$.==$$.                          ",
"                                     .&&&&&&*&&%%%$#%%%%%%%%$#$%&&%$#=.++....--++++--..+Xo@O=&&$.==$$.                          ",
"                                     .%&%&&&&%&%%&%%%%&&%%$$%##$%&&%$#=.......---++++--..+O+=&&$.=#$$.                          ",
"                                     .&&%%&%&%%%%&%%%%&&$&&%$$=#$&%&%$#=.-OXo.-----------...#%&#.=#$$.                          ",
"                                     .&**&%%%**%$%%%%%&%#&%%#$#=#%&&&%$#.O@@O.............-.#%&#.=#$#.                          ",
"                                     .%*&&%%%*&%$%%%%%%$%%%$=#$#=$%&&&%$#.@O.--.....-+OXXO+.$&&#.=#$#.                          ",
"                                     .$&&%$%%%$$%%%%%%&%%%$#=$$#==$%&*&%$=..-+OOOXXXXXXO+++.$&%=.=#$#.                          ",
"                                     .##%$$%$%%%%%%%%&&$$%%%$####==$%&*&%$#..--++OOO+++++--.%&%=.=#$=.                          ",
"                                     .#%***&%%%%%%$%%&%$#$$$$$$#$#=#$%&*&%$#=.-----------+.=&%$.==#$=.                          ",
"                                     .%*@@@**&%$$%#$%%$##$%&%$#$###=#$%&*&%$#=..-+OXXXXOO-.#&%#.==$$=.                          ",
"                                     .*@&%%&***&%$$$%%&%%$&%%$##$$##=#$%&*&%%$#=..-+OO+-..#$&$#.=#$#.                           ",
"                                     .%$$$$$$$$%&&%$$$%%$#&%$###$$$##.#$%&&%&%$$#=......=#$%%$=.=#$#.                           ",
"                                     ..*@@@**&%$$$&&%%$$%%#$##$%%##$$=.#$%&&&&%$%$##===#$%%%$$.==#$=.                           ",
"                                     .*&$$$$$&&&&%$$&&%%$$%%$=#$%&&%$#=.#$%$%%&&&%$$$$%$%%%%%#.=#$#=.                           ",
"                                    .*%$%&**&$$$%&&%$%&&%$#$%%$##&%$#$#=.=$#$##$$$%%%%%%%%$$#=.=#$#.                            ",
"                                    .%%*@@@****&$$%&%$#$&&&##$%%$###$##==.==#$%%#%$%%%$%$#=#=.==#$=.                            ",
"                                    .$*$#####$&**&$%&&$##$%&&##$%%$##==#==..=##$=$#$$$$#$#.=.==#$#=....                         ",
"                                    .*$.OOOOOO#$&*&$$%&%$##$%&%##$%%%%$$#==...==#=#=%##===..==##$#=.=#$.                        ",
"                                    .$.ooooooo+O#&*&$#$%%%$##$%%$####$%%%%$#==....===#=....=###$$#=...#%.                       ",
"                                    ..ooooooo;XoX#&**&#$%%%%$##$%%%%$#==#$%%%%$#==......==##$$####=.==.#%.                      ",
"                                   .Xo@oo@ooo;oooX#%&*&##$%%%%$###$$%%%$#===#$%%%%$$$$$$%%$$#==###=.===.$%.                     ",
"                                   .o@@@@@o@ooooXXX#%&*&$##$%%%%$#==#$%%%%$#=.=##$%%%%%%$##=.=#####.===.#%$.                    ",
"                                ...X@@@@@@@oooooo++O==&*&%$##$%%%%$#===#$%%%$#=...==###==...=##=###.==#=.%%.                    ",
"                             ...==.o@@@@@@@@oooo;oXXO+=%&&&%$##$%%%%%$#===#$%%%$#=........=####==##.=#$=.$%#.                   ",
"                          ...==##.X@oo@@@@@ooooooXXXOO==$%&&&%$###$$%%%%$#=.=#$%%$$##==##$$$$#==###.#$$#.#&$.                   ",
"                        ..==#####.ooX-X@@@@@@ooooooXXO+.=#$%&&&%$====#$%%%%$=..=##$$$$$$$$#====####......=&%#.                  ",
"                        .=#######.o@oOX@@@@@ooooooXXO;+.+==#$$%&&%$##===#$%%%$#=...=#$$#=...==##==#.=##=..%&$.                  ",
"                        .###==###.OooOX@@@@@@oooXXXXXO+-+++==#$$%&&&&%$#===#$%%$#==......===##$#==#=.#$#=.$&%.                  ",
"                        .#=====##.-OO-X@@@@@ooooXXXXXO+.+++=====#$$$%&&%%$#=..=#$$$$##===###$$#==##=.$%$#.#%&=.                 ",
"                        .=#=====#.O---o@@@@@@ooo;XXXO++-;++#$$#====#####$%%$#=...=##$$$$$$$$$#==####.#%%#.=$&#.                 ",
"                         .#=====#.oOOXo@@@@oooXXX;++++-+;+=$%$$####$$$#==#$%%%$#=....==####=..=###=#.=$%#=.#&$.                 ",
"                         .=#=====.@XXo@@@@@@oooXXXO;O+.;+=$%&%&$%&&%%%%$#===#$%%%$#==.......==##$==#=.$$#=.=&$.                 ",
"                         .=#=====.o@@@@@@@ooooooXXXO+-;;=$%&*&$%%$$%$$$%%%$#==##$%%$##======##$$#=##=.##==.=%#.                 ",
"                         .=#=====.o@@@@@@@@ooX;XXOO++.X+=&**&%%$##$##===#$%%$#===#$%%%%$$$$$$$$#==#=#.===..#$%.                 ",
"                         .=#=====.Oo@@@o@oooXoX;++++-X+=%*&%%$##$#$$$###==#$%%$#=..=##$$$$$$$##==##=#.==..=%&%#.                ",
"                         .#=======.XooooooXoXXXX;++-;+=%*&%$##$%$$%$#$####===#$$$#=...===##==..=##==#=...=%&%&$.                ",
"                        .=#=======.OXoXooXXXXXXOO+O.+=%*&%$#$%&%&%%$#$###$##===#$$$$#=.......==#$#==#=.##%&%&&%.                ",
"                     ...=##=======..XXXXXXXXOXOO++-;=%*&$$#%&&%$%%%%$%$##$###====#$$$$##====##$$#==###..$$%%&*&=.               ",
"                .. ..==###========..OXOXOXOOOOO++.;+=*&$##%&%%$$$&&%%$##$$#$#======##$$$$$$$$$#====###..#$%%&*&#.               ",
"               .%$..####=======###.;.OOOOOOOO++.-;+=&%$#=%&%%&%$%&%%%$$$%$$$##=======#########=====#=#=.#$%%**&#.               ",
"               .&##.#======#######.=;..OOO++...X;+=&%$##=&%$&%%%%*&$%%$$$%%$$#==========###=======##=#=.=$%%***$.               ",
"               .&#=.#====########=.&=;;.....ooX;==&%$##=&%$$&&&%%&%$%%$$%%$$$#==#================##===#.=#%%***$.               ",
"               .&#=.#===#######$$=.%&==;XXoo-===*&%$##=&%$&&**&%&&%%%$$%*%%%$#==#================#==#=#.=#$%&**%.               ",
"               .&#=.=#$#####$$$$$=.$&**=====***&%$###=&%$&&*o*&&&&*&&%%%&%$%##==#===#==#============#=#..#$%&&&%.               ",
"               .$%=..=#$%$$$$$%$#=..%&*@@@@@*&%$$##==&%$&*&*oo*&**o&&&%%%$$$#$=###==##=##============#+..=#%%&%$.               ",
"                .%=.=..#$%%$$%$#=...=$$%&&%%$$###==&&%$&*o**oo*&*oo&o&%%&&$$$$######$#=#====#========-+..=#$$#=..               ",
"                .$=.===...$%%$#=.  .%=#$$$$$##==&&&%%$&&*o*oo***oo&ooo&%&X$$O$##$$##$$#=#$==##======--+..===...=.               ",
"                 .$.=##===......    .%&#####&&&&%%%$$&**oo*oo*&*o&&oo&&&XX$OO$$#$$#$$+####===#======-+.=....=##$.               ",
"                  .===#$$##==..     .&%&***&%%%%$$$&**o*oooo*&&oo%%oX&%&XOOOOO$$####$+##===========--+.====#$%&%.               ",
"                  .#==#$%%$#=.       .&%&*&%&&&&ooo*oooooooo*&&oo%&o&%%&XOOO$$$$###$O+++#=##=-==-==--+.=#$$%&&&%.               ",
"                  .#===#%&%$#.       .o****ooo@@ooooooooooooo&oooooX&%&XXXXO$#$O$##$O++#==##=-=--=--+..=#=#%&&&%.               ",
"                  .#===#$&&%$.        .ooooXXXXXXXXooooXoXooooooXoXo&&XXXXOO$#$O$##$+++#==#==-=-----+..=#=#%&&&%.               ",
"                  .#====$&*&$.        .XooXoo@@@@ooXXXOOOXXooXoooXXX&XXXXOO$#$OO$#$O+++#=#+#===----+. .=#==$&&&%.               ",
"                  .#====#%**.          .oXoooo@oooooooooXOO+XXXoXoXXXXXXXXO$$O$$$$OOOO+###++-==---++. .=#==$&&&%.               ",
"                   .====#$**.          .XXoooXXXOOOOOOXXXXXO++XXXXoXXXXOXOOOO$#$OOOOO+++#+-------++.   .#==#&&&$.               ",
"                   .#===#$**.           .XXOXoooXXXXXXOOO+OXXO++OXXXXXOOOOOOO$$OOOO+OO+++++-----+..    .=#=#%&&$.               ",
"                   .#===#%**.            .OXooo@@@oooooXXX++OXXO+OOXOXXOXOOOOOOOO+OO++++-+----...      .=#==%&&$.               ",
"                   .#===#%**.             .+ooOOOOOOOXXooooX++OXO+-OOOOOOOXOOO+O++O++-+-+---..+.       .=#==%&&$.               ",
"                   .#===#%**.              .oOoooooXXOOOOXXooX++XO+---OOOOOOOOO+OO++-+---...-+.        .=#==$&%$.               ",
"                   .#===#%**.               .ooo@@oooooXXOOXXoXX++OO++---.OO+O++++---....--...         .=#==$&%$.               ",
"                   .#===#%**.               ..ooOOOOXXoooXXOO+OOXX+--OO++-...........---...-.           .#==$&%$.               ",
"                    .#==#%**.                .oOooooOOXXoooXXO+++OO++---..----------....--..            .#==$&%$.               ",
"                    .#==#%**.                 .Oo@@@oX+OXXooooXOO++--+++--..........++--..+.            .#==#&%$.               ",
"                    .$==#%&*.                  .oo@@ooX++OOXXXXXXXOOO---........++++--..-+O.            .#==#&%$.               ",
"                    .$===$&*#.                  .ooo@oooX++++OOOOOXXXOOOO+++++++---...--+O.             .#==#%%$.               ",
"                    .$#==$&*$.                  .oooooooooXXO+++++OOO++++-----.....---++OO.             .#==#%$#.               ",
"                     .#==$%*%.                   .oooooooXXXXXXOOO+------.....--------++O.              .#==#%$#.               ",
"                     .$==#%*&.                    .XooXXXXXXXOOOOOO++++++++----------++O.               .#==#%$=.               ",
"                     .$#=#%&*.                     .XXXXXXXOOOO++..........---------++O...              .#==#%$.                ",
"                      .#=#%&*$.                     .XOOOOOOO+...+XXXXOoXX-..------+...---.             .#==#%$.                ",
"                      .$==$%*%.                      ..OOOO...++XooooooX@oXOO.----..O+++---.            .#==#$#.                ",
"                      .$==$%*&.                       .....O+XXoooooooXO@@oXXO....OO++++---.            .#==#$#.                ",
"                       .#=#%&*.                      .Xoo+++Xo@@oooXXXXOoooooXXOOO++++++----.           .#==#$=.                ",
"                       .$=#$%*.                     .Xoooooo@-+ooXOO.....XoooooXXOO++.....--.           .#==#$.                 ",
"                        .==$%*$.                    .+@@ooo@-+OoXO+.XXooO.XXoXXXXOO+.OXXXO.-.           .#==#$.                 ",
"                        .#=#$*%.                    .O@oooo@+OOoO+.Xoo...O.XXXXXOO+.OXo...O..           .#==$#.                 ",
"                        .$=#$&&.                    .OooooooOOoXO.Xo@.....O.XXXXOO+.Oo.......           .#==$#.                 ",
"                         .==#%*.                    .oXOOOOXooXO+.Xo@.....O.OXXOOO-.Oo.......           .#=#$=.                 ",
"                         .$=#$*.                    .XOooooOXXO+-.OXo.....O.X+OOO+X.+X.......           .#=#$.                  ",
"                          .==$*%.                    .oXXXXoOO+XX.+OX.....O.Xo+++XO.+OX...O.            .#=$#.                  ",
"                          .$=#&&.                    .XOOOOXoooooX.++X...X.OXXooXOO+.++++O.             .#=$#.                  ",
"                           .=#%*.                    .OO++--OXXXoo+.++OOX.+OXXXXOOO+-......             .#=$=.                  ",
"                           .$=$*.                     .OOO++-++OOXX+.....-OOOOOOOO+++----.              .#=$.                   ",
"                            .=#*.                     .+OOOO+-.++OXO+----+OOOOOOO+++----.               .#=$.                   ",
"                            .$=%&.                     .++OOO+-.++OOO+--+OOOOO++++---...                .#=$.                   ",
"                             .=$&.                      .+++++--..++++++++++++----...                   .##.                    ",
"                             .$=&.                       ..++++--...---+++----....                      .#$.                    ",
"                              .#=%.                        ....+---....---....                          ...                     ",
"                               .#$.                            ...........                                                      ",
"                                ...                                                                                             ",
"                                                                                                                                ",
"                                                                                                                                ",
"                                                                                                                                ",
"                                                                                                                                ",
"                                                                                                                                ",
"                                                                                                                                ",
"                                                                                                                                "
};
