/* XPM */
static char *result[] = {
/* columns rows colors chars-per-pixel */
"128 128 15 1 ",
"  c magenta",
". c #100000",
"X c #B59463",
"o c #E7CE9C",
"O c #524218",
"+ c white",
"@ c #394A4A",
"# c #526B63",
"$ c #638C84",
"% c #8CADA5",
"& c #846331",
"* c #ADCEC6",
"= c #292931",
"- c #312100",
"; c #9C6342",
/* pixels */
"                                                                                                                                ",
"                                                                                                                                ",
"                                                                                                                                ",
"                                                                                                                                ",
"                                                                                                                                ",
"                                                                                                                                ",
"                                                .....                                                                           ",
"                                             ...XoXO.                                    .....                                  ",
"                                            .OX++XO.                                   ..@#$%$.                                 ",
"                                         .......X&.                                   .@#$$$$%$.                                ",
"                                        .%*%$#==...                             ......@#@=..@#*$.                               ",
"                                       .$*+++*%$#=..                            .oooX.#=.....@*%@.                              ",
"                                       .*%$%*+++%$@=.                            .&X.#@.OX+O..%*#.                              ",
"                                      .@#######$+%$@=.    ...                    ...#@=..&X+X.%*$=.                             ",
"                                      .$$%%%$#@@%+%$#@.  .&o.                    .=@#=.--.OXo.$*%=.                             ",
"                                     .@$%****%$#@%+%$#=..X+&.                    .@#=.-.O-..O.$*%@=.                            ",
"                                     .#%****+++*#@%+%$@.X++.                    .@$=.OO-......#%*#=.                            ",
"                                    .@$*+******+%#@$+%#=.oX.                .........-OOOO-...#%*#=..                           ",
"                                    .#%*******+++%$@$%$@=..                 .OXXXO..O-..-OO-..@$*#...                           ",
"                                    .$************%#@$%$@=.                  .-O&&..&&O-......@$*$.=.                           ",
"                                   .@%*%********%%*$#@$%#@.                   .-O..--OOO-.....=#*$.==.                          ",
"                                   .#**********%**%%$@#%$#@.                  ...=.O----.O&o+o=@*$.==.                          ",
"                                   .$**+**%+*+*%*%$%$#@$%$#=.                .=@@=.O&O-...O&o+O=*$.==.                          ",
"                                   .$*%+*%%*$%%%$#$%$%#@$%$#=.    ...        .@#@..-O&O---.-&X&=*$.=@.                          ",
"                                   .%%%%%%$##**%$$%%%$$@#$%$@=. ..Xo.       .=$@=...-OOOO--..-O@*$.=@=.                         ",
"                                   .%%$%+*$$%*%%%%%$%$$#@$%%#@..&o+X.  ......@$@.O&--...----..=@*$.=@=.                         ",
"                                   .+*$%*%$%$%%%%$*%$#$$@#$%$#=.o+X.   .-&&-.##=.-O&&O-.......=#*#.=#@.                         ",
"                                   .*$$%%%%%$%$%%$*$@@%%#@$$%$#=Oo&.    .OX&.#@.O---OOO-----..=#%#.=#@.                         ",
"                                   .%%%+*%%*%%$$$$$#@#%$$@#$$%$#=.&.     .O.=@=.&O--..-OOO--..@$%@.=##.                         ",
"                                   .$$%+*%%**%%$$$$$$#$$$#@#$%%$@=.      ..=@=.-O&&O--.......=@$%=.=##.                         ",
"                                   .$#$*%%$%*%%%**##$$$$%$@@$%%$$@=..    .==@=..--OOOO--.....=#%%=.=##.                         ",
"                                   .#%$%$$$*%%$%*%@#$$$$%$#@#$%%$#@=........==.-O--.....&o+oO@#%%.==##.                         ",
"                                   .#%%%%%%*%%%$%$@$$$$$$$$@@#$%%$#@=.-OOO--...-OOO-.....&o+&=$%$.==##.                         ",
"                                   .@$%$%%%%$%$$$##$$%%$$#$#=@#$%%$#@=..........-OOOO--...O&O=$%$.=@##.                         ",
"                                   .=%%$$%$%$$$$%$$$$%%#%%##@=@#%%%$#@=.-XoX..------------...=%%#.=@##.                         ",
"                                    .%**%$$$**$$%%$$$%$@%$$@#@=@$$%%$#@.&+XO...-------.......@%%#.=@##.                         ",
"                                    .$%*%$$$*%$#$$$$$$#$$$#=#@@=#%%%%$#@.o&.-.........-OO&&O.@$%@.=@#@.                         ",
"                                    .$$%$#$$$###$$$$$%$$$#@=##@@=#$%*%$#=..-O&&XXXXXXXXXX&O.=#%%@.=@#@.                         ",
"                                    .#@$##$#$$$$$$$$%%##$$$#@@@@@=#$%*%$#@..--OO&&&&&&OO---.@$%%=.=@#@.                         ",
"                                    .@#$$$$#$##$$#$$%$#@#$##@#@#@==#$%*%$#@=.-------------.=#%%$=.=@#=.                         ",
"                                    .=$*++*%%$$##$@#$$#@@#$$$#@##@=.#$%*%$#@=..-O&&XXXXX&-.@$%$#.==@#=.                         ",
"                                     .*+++++**%%$###$$%$$#%%$#@@##@=.#$%**%$#@=...-O&&O-..=#$%#@.==##=.                         ",
"                                     .$#######$%%%$###$$#@%$#@@@##@@=.#$%%$%$##@==......=@#$%$#=.=@##.                          ",
"                                     ..*+++*%$###$%%$###$$@#@@#$$@@##=.@$$%%%%$#$#@=====@#$%$##.==@#@.                          ",
"                                     .*%####$%%%$##$%%$###$$#=@#$%$$@@=.@#$#$%%%$$$###$$#$$$$$@.=@@#@.                          ",
"                                    .*$#$%%$###$%%$##$%%$#@#$$#@@%$###@=.=#@#@#$#$$$$$$$$$$#@=.==@##=.                          ",
"                                    .$%++++++%%##$%%$#@#%%%@@#$$#@@@@@@==..=@#$$@$#$$$$#$@=@=..=@@##=.                          ",
"                                    .#*%$#@#$%**%#@$%%#@@#$%%@@@$$$#@==@@=..=@#=#@#####@#@.=..=@@###...                         ",
"                                    .*$.@@&&@@$%*%#@#$%%#@@#$%%#@@#$$$$##@==..==@==$##@===..==@@@##@.@#.                        ",
"                                    .$.&XoooX&O@%*%$@@#$%$#@@#$%$#@@@@#$$$$#@=....===@=...=@@@@@##@@..@$.                       ",
"                                    ..Xoooooo;X&@$**%$@#$$$$#@@#$$$$#@==@#$$$$#@==.....==@@@####@@@=.=.@$.                      ",
"                                   ..Xooo+ooo;oXX&@$**$@@#$$$$#@@@##$$$#@===@#$$$$#######$$$#@@==@@=.==.#$.                     ",
"                                   .Xo+o++ooXoooXX&@$%*$#@@#$$$$#@==@#$$$$#@=.=@@#$$$$$$$##@===@@@@=.==.@$#.                    ",
"                                ...&o+++++o+oooooOO&=#%**$#@@#$$$$#@===@#$$$#@=...==@@@==....=@@@@@=.=@=.$$.                    ",
"                             ...==.X++++++++oooo;oX&O=#$%*%$#@@#$$$$$#@===@#$$$#@=........==@@@@@=@=.@#=.#$@.                   ",
"                          ...==@@.&ooo+++++ooooooXXX&O==#$%%%$#@@@##$$$$#@..=@#$$##@@==@@@@###@==@@=.##@.@%#.                   ",
"                        ..==@@@@@.XoX-X++++o+ooooXoX&OO.=@#$%%%$#====@#$$$#=...=@@#########@====@@@=.....=%$@.                  ",
"                        .=@@@@@@@.o+o&X+++++ooooooXXX;O.O==@##$%%$#@@===@#$$$#@=...=@##@=...==@@==@@.@@=..$%#.                  ",
"                        .@@@==@@@.&oo&X+++++ooooXXXX&&O-OOO==@@#$%%%%$#@===@#$$#@==......===@@#@==@@.@#@=.#%$.                  ",
"                        .@=====@@.-&&-X++++++ooooXXXX&O.O&O=====@@##$%%%$#@=..=@####@@===@@@##@==@@@.#$#@.@$%=.                 ",
"                        .=@=====@.&---o++++++oooXXXX&OO-OO-@##@====@@@@@#$$#@=...=@@#########@==@@@@=.$$@.=#%@.                 ",
"                         .@=====@.o&&Xo+++++oooX;;OOOO-O;O=#$##@@@@###@==@#$$$#@=....==@@@@=..=@@@=@=.#$@=.@%#.                 ",
"                         .=@=====.+XXo+++++oooXXXXX;&O.;;=#$%$%#$%%$$$$#@===@#$$$#@==.......==@@#==@@.##@=.=%#.                 ",
"                         .=@=====.o+++++++++ooooXX&&O-O;=#$%*%#$$##$###$$$#@==@@#$$#@@======@@##@=@@@.@@==.=$@.                 ",
"                         .=@=====.o+++++++oooXXXX&&OO-XO=%**%$$#@@#@@===@#$$#@===@#$$$$########@==@=@.===..@#$.                 ",
"                         .=@=====.&o++o+o+oooX;;OOOO.XO=$*%$$#@@#@###@@@==@#$$#@=..=@@#######@@==@@=@=.=..=$%$@.                ",
"                         .@=======.XooooooooXoXX;OO-;X=$*%$#@@#$##$#@#@@@@===@###@=...===@@==..=@@==@=...=$%$%#.                ",
"                        .=@=======.&XooXoXXXXXX&&O&.X=$*%$#@#$%$%$$#@#@@@#@@===@####@=.......==@#@==@@.@@$%$%%$.                ",
"                     ...=@@=======..XXXXXXXXXX&&OO-;=$*%##@$%%$#$$$$#$#@@#@@@====@####@@====@@##@==@@@..##$$%*%=.               ",
"                .. ..==@@@========..&&X&X&X&&&&OO.;O=*%#@@$%$$###%%$$#@@##@#@======@@#########@====@@@..@#$$%*%@.               ",
"               .$#..@@@@=======@@@.;.&&&&&&&&OO.-;O=%$#@=$%$$%$#$%$$$###$###@@=======@@@@@@@@@=====@=@..@#$$**%@.               ",
"               .%@@.@======@@@@@@@.=;..&&OOO...X;O=%$#@@=%$#%$$$$*%#$$###$$##@==========@@@=======@@=@=.=#$$***#.               ",
"               .%@=.@====@@@@@@@@=.%=;;.....ooX;==%$#@@=%$##%%%$$%$#$$##$$###@==@================@@==@=.=@$$***#.               ",
"               .%@=.@===@@@@@@@##=.$%==XXooo-===*%$#@@=%$#%%**%$%%$$$##$*$$$#@==@================@==@=@.=@#$%**$.               ",
"               .%@=.=@#@@@@@#####=.#%**=====***%$#@@@=%$#%%*o*%%%%*%%$$$%$#$@@==@===@==@============@=@..@#$%%%$.               ",
"               .#$=..=@#$#####$#@=..$%*+++++*%$##@@==%$#%*%*oo*%**o%%%$$$###@#=@@@==@@=@@============@O..=@$$%$#.               ",
"                .$=.=..@#$$##$#@=...=##$%%$$##@@@==%%$#%*o**oo*%*oo%o%$$%%####@@@@@@#@=@====@========-O..=@##@=..               ",
"                .#=.===...#$$#@=.  .$=@#####@@==%%%$$#%%*o*oo***oo%ooo%$%X##&#@@##@@##@=@#==@@======--O..===...=.               ",
"                 .#.=@@===......    .$%@@@@@%%%%$$$##%**oo*oo*%*o%%oo%%%XX#&&##@##@##O@@@@===@======-O.=....=@@#.               ",
"                  .===@##@@==..     .%$%***%$$$$###%**o*oooo*%%oo$$oX%$%X&&&&&##@@@@#O@@===========--O.====@#$%$.               ",
"                  .@==@#$$#@=.       .%$%*%$%%%%ooo*oooooooo*%%oo$%o%$$%X&&&####@@@#&OOO@=@@=-==-==--O.=@##$%%%$.               ",
"                  .@===@$%$#@.       .o****ooo++ooooooooooooo%oooooX%$%XXXX&#@#&#@@#&OO@==@@=-=--=--O..=@=@$%%%$.               ",
"                  .@===@#%%$#.        .ooooXXXXXXXXooooXoXooooooXoXo%%XXXX&&#@#&#@@#OOO@==@==-=-----O..=@=@$%%%$.               ",
"                  .@====#%*%#.        .XooXoo++++ooXXX&&&XXooXoooXXX%XXXX&&#@#&&#@#&OOO@=@O@===----O. .=@==#%%%$.               ",
"                  .@====@$**.          .oXoooo+oooooooooX&&OXXXoXoXXXXXXXX&##&####&&&&O@@@OO-==---OO. .=@==#%%%$.               ",
"                   .====@#**.          .XXoooXXX&&&&&&XXXXX&OOXXXXoXXXX&X&&&&#@#&&&&&OOO@O-------OO.   .@==@%%%#.               ",
"                   .@===@#**.           .XX&XoooXXXXXX&&&O&XX&OO&XXXXX&&&&&&&##&&&&O&&OOOOO-----O..    .=@=@$%%#.               ",
"                   .@===@$**.            .&Xooo+++oooooXXXOO&XX&O&&X&XX&X&&&&&&&&O&&OOOO-O----...      .=@==$%%#.               ",
"                   .@===@$**.             .Ooo&&&&&&&XXooooXOO&X&O-&&&&&&&X&&&O&OO&OO-O-O---..O.       .=@==$%%#.               ",
"                   .@===@$**.              .o&oooooXX&&&&XXooXOOX&O---&&&&&&&&&O&&OO-O---...-O.        .=@==#%$#.               ",
"                   .@===@$**.               .ooo++oooooXX&&XXoXXOO&&OO---.&&O&OOOO---....--...         .=@==#%$#.               ",
"                   .@===@$**.               ..oo&&&&XXoooXX&&O&&XXO--&&OO-...........---...-.           .@==#%$#.               ",
"                    .@==@$**.                .o&oooo&&XXoooXX&OOO&&OO---..----------....--..            .@==#%$#.               ",
"                    .@==@$**.                 .&o+++oXO&XXooooX&&OO--OOO--..........OO--..O.            .@==@%$#.               ",
"                    .#==@$%*.                  .oo++ooXOO&&XXXXXXX&&&---........OOOO--..-O&.            .@==@%$#.               ",
"                    .#===#%*@.                  .ooo+oooXOOOO&&&&&XXX&&&&OOOOOOO---...--O&.             .@==@$$#.               ",
"                    .#@==#%*#.                  .oooooooooXX&OOOOO&&&OOOO-----.....---OO&&.             .@==@$#@.               ",
"                     .@==#$*$.                   .oooooooXXXXXX&&&O------.....--------OO&.              .@==@$#@.               ",
"                     .#==@$*%.                    .XooXXXXXXX&&&&&&OOOOOOOO----------OO&.               .@==@$#=.               ",
"                     .#@=@$%*.                     .XXXXXXX&&&&OO..........---------OO&...              .@==@$#.                ",
"                      .@=@$%*#.                     .X&&&&&&&O...OXXXX&oXX-..------O...---.             .@==@$#.                ",
"                      .#==#$*$.                      ..&&&&...OOXooooooX+oX&&.----..&OOO---.            .@==@#@.                ",
"                      .#==#$*%.                       .....&OXXoooooooX&++oXX&....&&OOOO---.            .@==@#@.                ",
"                       .@=@$%*.                      .XooOOOXo++oooXXXX&oooooXX&&&OOOOOO----.           .@==@#=.                ",
"                       .#=@#$*.                     .Xoooooo+-OooX&&.....XoooooXX&&OO.....--.           .@==@#.                 ",
"                        .==#$*#.                    .O++ooo+-O&oX&O.XXoo&.XXoXXXX&&O.&XXX&.-.           .@==@#.                 ",
"                        .@=@#*$.                    .&+oooo+O&&o&O.Xoo...&.XXXXX&&O.&Xo...&..           .@==#@.                 ",
"                        .#=@#%%.                    .&oooooo&&oX&.Xo+.....&.XXXX&&O.&o.......           .@==#@.                 ",
"                         .==@$*.                    .oX&&&&XooX&O.Xo+.....&.&XX&&&-.&o.......           .@=@#=.                 ",
"                         .#=@#*.                    .X&oooo&XX&O-.&Xo.....&.XO&&&OX.OX.......           .@=@#.                  ",
"                          .==#*$.                    .oXXXXo&&OXX.O&X.....&.XoOOOX&.O&X...&.            .@=#@.                  ",
"                          .#=@%%.                    .X&&&&XoooooX.OOX...X.&XXooX&&O.OOOO&.             .@=#@.                  ",
"                           .=@$*.                    .&&OO--&XXXooO.OO&&X.O&XXXX&&&O-......             .@=#=.                  ",
"                           .#=#*.                     .&&&OO-OO&&XXO.....-&&&&&&&&OOO----.              .@=#.                   ",
"                            .=@*.                     .O&&&&O-.OO&X&O----O&&&&&&&OOO----.               .@=#.                   ",
"                            .#=$%.                     .OO&&&O-.OO&&&O--O&&&&&OOOO---...                .@=#.                   ",
"                             .=#%.                      .OOOOO--..OOOOOOOOOOOO----...                   .@@.                    ",
"                             .#=%.                       ..OOOO--...---OOO----....                      .@#.                    ",
"                              .@=$.                        ....O---....---....                          ...                     ",
"                               .@#.                            ...........                                                      ",
"                                ...                                                                                             ",
"                                                                                                                                ",
"                                                                                                                                ",
"                                                                                                                                ",
"                                                                                                                                ",
"                                                                                                                                ",
"                                                                                                                                ",
"                                                                                                                                "
};
