/* XPM */
static char *result[] = {
/* columns rows colors chars-per-pixel */
"64 64 14 1 ",
"  c magenta",
". c #100000",
"X c #608880",
"o c #506860",
"O c #303838",
"+ c #88A8A0",
"@ c #405048",
"# c #A0C0B8",
"$ c #182828",
"% c #F8F8F8",
"& c #988068",
"* c #605040",
"= c #E0D8C0",
"- c #C8B8A0",
/* pixels */
"                                                                ",
"                                                                ",
"                                                                ",
"                                                                ",
"                                                                ",
"                                                                ",
"                                                                ",
"                                                                ",
"                                                                ",
"                                                                ",
"                                                                ",
"                                                                ",
"                                                                ",
"                                                                ",
"                                                                ",
"                                                                ",
"                                                                ",
"                                                                ",
"                                                                ",
"                                                                ",
"                                                                ",
"                                                                ",
"                                                                ",
"                                                                ",
"                                                                ",
"                                                                ",
"                                                                ",
"                           ....                                 ",
"                         ..XXoO..                               ",
"                        .OOOO+oO@.                              ",
"                       .X+##+O+O@@.                             ",
"                      .X+XooX+OXO@O.                            ",
"                      .+##+XoX+OoO@$.                           ",
"                     .+#%%#+Xo+OoO@O.                           ",
"                     .#%%%#+XoXOoO@O$.                          ",
"                     .##%#%#+oXX$oO@O.                          ",
"                    .X+##+#+XXo+$oOO$$.                         ",
"                    .++++++X+XoX$o@OO$.                         ",
"                    .X++XXXXXXoo@$o@O$$.                        ",
"                    .X+Xo@@oXXoX@$@oOO$.                        ",
"                    .#%%%#X@ooo+#@XoO$$.                        ",
"                    .%&&**#X@oXX+Xo..O$.                        ",
"                  ..#&%%==*#X@oXXo.Xo.O.  ..                    ",
"                 .o.&%%%%==*XooXo.X+Xo.*..Xo.                   ",
"                .o@.&=&====&*XoXo.oXo@.*.X+Xo.                  ",
"                .@$.&&.*===&*+XX.oOoO$.*.oXo@.                  ",
"               .@...&..*===&*+o+OX@$o@O.o$oO$.                  ",
"               .@O..*=*===&*.#o+O+@.o@O.@O.@@O.                 ",
"               .@O..-*===&*.+@XO+@O.X@O.O$.o@O.                 ",
"               .oO. .-*&&*.=&o&OX@$.X@O.$..o@O.                 ",
"               .oO. .&-...=&*&-$o@.*.X@O.  .o@O.                ",
"              .oO$.  .&=%=&*&--&..**.+@O.  .X@O.                ",
"              .oO.   .-&***&-===&***.X@O.   ....                ",
"              .X@.    .-&&&-===--&***.@..   .Xo@.               ",
"              ...     .&-==-----&&&**..oO.  .X@O.               ",
"             .Xo@.    ..&&-&-&&&*&***.X@O.   .@O.               ",
"             .Xo@.    .$.*&*&*&*****..o@O.   .@O.               ",
"             .o@.    .$$...*******..  .@O.    .@O.              ",
"             .o@.    .$$.  .......    .@@O.   .@O.              ",
"             .o@.    .O.               .@O.    .O.              ",
"             .o.    .OO.               .@O.    .@O.             ",
"             .X.    .O.                 .O.     .O.             ",
"             .+.    .@.                 .@.     .@.             ",
"             ..     ..                   ..      ..             "
};
