/* XPM */
static char *result[] = {
/* columns rows colors chars-per-pixel */
"64 64 14 1 ",
"  c magenta",
". c #100000",
"X c #182828",
"o c #506860",
"O c #608880",
"+ c #303838",
"@ c #988068",
"# c #88A8A0",
"$ c #A0C0B8",
"% c #605040",
"& c #F8F8F8",
"* c #405048",
"= c #E0D8C0",
"- c #C8B8A0",
/* pixels */
"                                                                ",
"                                                                ",
"                                                                ",
"                                                                ",
"                                                                ",
"                                                                ",
"                                                                ",
"                                                                ",
"                                                                ",
"                                                                ",
"                                                                ",
"                                                                ",
"                                                                ",
"                                                                ",
"                                                                ",
"                                                                ",
"                                                                ",
"                                                                ",
"                                                                ",
"                                                                ",
"                                                                ",
"                                                                ",
"                                                                ",
"                                                                ",
"                                                                ",
"                                                                ",
"                             ......                             ",
"                           ..XoOOo+.                            ",
"                         ..XXXXX@+oX.                           ",
"                        .O##$+X@%X+o+.                          ",
"                       .OOOoo#+XXXX+oX.                         ",
"                       .O#$$#oO+%@X+o+.                         ",
"                       .#$&&$#o#%XXXo+X.                        ",
"                      .O$&&&$#oO+XX@+o+.                        ",
"                      .O$$&$&$#oOX@%+o+..                       ",
"                      .O#$$#$#OoO+XXXo+X.                       ",
"                      .######O#OoOXXX++X.                       ",
"                      .O##OOOOOOoo*XX*+XX.                      ",
"                     .*O#OOOOOOOoO*X+o++X.                      ",
"                     .oO#Oo**oOOo$O**O+XX.                      ",
"                     .O#&&$$O*ooo#OOO*++X.                      ",
"                     .O@@@@$$O*oOO#..+X*+.                      ",
"                    ..@..%=@%$O*oO.Oo.+*+%..                    ",
"                   .o.@%%@&==%#oo.O#Oo.o%.Oo.                   ",
"                  .o*%---====@%#o.oOo*.o.O#Oo.                  ",
"                  .*X@-======@%#O.+o+X.%.oOo*.                  ",
"                  ...@=======@%$XO*Xo*+.oXo+X.                  ",
"                 .*+.%-=====@%.$X#*.o*+.*+.**+.                 ",
"                 .o+X.%-===@%.#*+#+.O*+.+X.o*+.                 ",
"                 .*+. .%@@@%.%=o+O+.O*+.X..o*+.                 ",
"                .o+X. ......==%@X++..O*+.. .o*+.                ",
"                .o+X. .%@@--@%@-@..%.#*+.. .O*+.                ",
"               ..o+.   .%%%%%@--=@%%.#*+.. .O...                ",
"               .o+X.   .%%%@-=---@@%.O+...  .Oo*.               ",
"               ...X.   ..%%@@@@@@@%@%..o*.  .O*+.               ",
"               .*X.   .XX..%%%@%@%%%%.o*+.   .*+.               ",
"              .*+X.   .XX. ..%%%%%%%. .o+.   .*+.               ",
"              .*X.    .XX.   .......  .o+.    .*+.              ",
"              .*X.   .+X.              .*+.   .*+.              ",
"             .*+.    .+X.              .*+.    .+.              ",
"             .*+.   .++.                .+.    .*+.             ",
"             .o.    .++.                .+.     .+.             ",
"             .O.    .*.                 .*.     .*.             ",
"             ..     ...                  ..      ..             "
};
