/* XPM */
static char *result[] = {
/* columns rows colors chars-per-pixel */
"64 64 14 1 ",
"  c magenta",
". c #100000",
"X c #506860",
"o c #608880",
"O c #303838",
"+ c #88A8A0",
"@ c #A0C0B8",
"# c #605040",
"$ c #405048",
"% c #182828",
"& c #F8F8F8",
"* c #988068",
"= c #E0D8C0",
"- c #C8B8A0",
/* pixels */
"                                                                ",
"                                                                ",
"                                                                ",
"                                                                ",
"                                                                ",
"                                                                ",
"                                                                ",
"                                                                ",
"                                                                ",
"                                                                ",
"                                                                ",
"                                                                ",
"                                                                ",
"                                                                ",
"                                                                ",
"                                                                ",
"                                                                ",
"                                                                ",
"                                                                ",
"                                                                ",
"                                                                ",
"                                                                ",
"                                                                ",
"                                                                ",
"                                                                ",
"                                                                ",
"                             .....                              ",
"                          ...XooXO.                             ",
"                         .OOOO...XO.                            ",
"                        .o+@@+O.#.XO.                           ",
"                        .ooXXo+O..XOO.                          ",
"                       .o+@@+Xo+O.XO$%.                         ",
"                       .+@&&@+XoO..XOO.                         ",
"                       .@&&&@+oXoO.XOO%.                        ",
"                      .o@@&@&@+XoO.XO$O.                        ",
"                      .o+@@+@+ooX+%.$O%%.                       ",
"                      .++++++o+oXo%.$OO%.                       ",
"                      .o++ooooooXX$.X$O%%.                      ",
"                      .o+oooooooXo$%$XOO%.                      ",
"                      .o+oX$$XooX@o$XXO%%.                      ",
"                     .Xo&&@@o$XXX++oo$OO%.                      ",
"                     .o@****@o$Xooo..O%$O.                      ",
"                   ...@*&&==#@o$Xo.oX.O$OO..                    ",
"                  .X$.*&*&&==#+XX.X+oX.XO.oX.                   ",
"                 .X$..-*.#===*#+X.$oX$.X.$+o$.                  ",
"                 .$%O.-#.*===*#+o.OXO%.O.$oXO.                  ",
"                .$..%.-**====*#@.o$%X$O.X%XO%.                  ",
"                .$O.%.-=====*#.@%+$.X$O.$O.$$O.                 ",
"                .XO%..#-===*#.+$%+$.o$O.O%.X$O.                 ",
"                .$O. ..#***#.=*X%oO.o$O.%..X$$.                 ",
"               .XO%.  .*....=*#*.$O..o$O.. .X$O.                ",
"               .XO%.  .#--==*#*-*..#.o$O.. .X$O.                ",
"               .XO.    .#####*-=-*##.+$O..  ....                ",
"               .X%.    .###*=-----*#.+$...  .X$O.               ",
"              .....   ...#**--****#*#..XO.  .X$O.               ",
"              .XO.    .%%..#*#*######.X$O.   .$O.               ",
"              .$O.    .%%. ..#######...XO.   .$$.               ",
"              .$%.   .O%.    .......  .X$.    .$O.              ",
"             .$O.    .O%.              .XO.   .$O.              ",
"             .$O.    .O.               .XO.    .$.              ",
"             .$O.   .OO.                .O.    .$O.             ",
"             .X.    .O.                 .O.     .O.             ",
"             .o.    .$.                 .$.     .$.             ",
"             ..     ..                   ..      ..             "
};
