/* XPM */
static char *result[] = {
/* columns rows colors chars-per-pixel */
"64 64 14 1 ",
"  c magenta",
". c #100000",
"X c #608880",
"o c #506860",
"O c #303838",
"+ c #405048",
"@ c #88A8A0",
"# c #A0C0B8",
"$ c #182828",
"% c #F8F8F8",
"& c #988068",
"* c #605040",
"= c #E0D8C0",
"- c #C8B8A0",
/* pixels */
"                                                                ",
"                                                                ",
"                                                                ",
"                                                                ",
"                                                                ",
"                                                                ",
"                                                                ",
"                                                                ",
"                                                                ",
"                                                                ",
"                                                                ",
"                                                                ",
"                                                                ",
"                                                                ",
"                                                                ",
"                                                                ",
"                                                                ",
"                                                                ",
"                                                                ",
"                                                                ",
"                                                                ",
"                                                                ",
"                                                                ",
"                                                                ",
"                                                                ",
"                                                                ",
"                                                                ",
"                           ....                                 ",
"                        ...XXoO..                               ",
"                       .OOOOO.oO+.                              ",
"                      .XX@##@O.oO+.                             ",
"                      .X@XooX@O.oOO.                            ",
"                      .@##@XoX@.oO+$.                           ",
"                     .@#%%#@Xo@OoO+O.                           ",
"                     .#%%%#@XoXO.oOO$.                          ",
"                     .##%#%#@oXX.oO+O.                          ",
"                    .X@##@#@XXo@$oOO$$.                         ",
"                    .@@@@@@X@XoX$.+OO$.                         ",
"                    .X@@XXXXXXoo+.o+O$$.                        ",
"                    .X@Xo++oXXoX+$+oOO$.                        ",
"                    .X%%##X+ooo@#+XoO$$.                        ",
"                   .X#&&&*#X+oXX@Xo..O$.                        ",
"                  ..#&%%==*#X+oXXo.Xo.O.  ..                    ",
"                 .+.&%%%%==*XooXo.oX@o.*..Xo.                   ",
"                .o$.&======&*XoXo.+oo+.*.o@o+.                  ",
"                .+$.-=&====&*@XX.XO+O$.*.oXX+.                  ",
"               .+...-&.*===&*@o@OX+$o+O.o$oO$.                  ",
"               .+O..&..*==&*.#oO@++.X+O.o+.++O.                 ",
"               .oO..*-*==&*.@+XOX+O.X+O.+O.o+O.                 ",
"               .oO. .*&&&*.=&o&OoO$.X+O.$..o+O.                 ",
"               .oO. .-....=&*&-$+O.*.@+O.  .o+O.                ",
"              .oO$. .*==%=&*&---..**.@+O.  .o+O.                ",
"              .oO$.  .*****&-===&****.+O.  .X...                ",
"              .+O.    .&&&&-===--&***....   .Xo+.               ",
"              ..O.    .&-==-----&&&**.oo+.  .X+O.               ",
"              .o..    ..&&--&&&&*&***.o++.   .+O.               ",
"              .oO.   .O..*&*&*&*****..o+O.   .+O.               ",
"             .o+$.   .OO...*******..  .+O.    .+O.              ",
"             .o+.    .OO.  .......    .++O.   .+O.              ",
"             .oO.    .O.               .+O.    .O.              ",
"             .o.    .OO.               .+O.    .+O.             ",
"             .o.    .O.                 .O.     .O.             ",
"             .X.    .+.                 .+.     .+.             ",
"             ..     ..                   ..      ..             "
};
