/* XPM */
static char *result[] = {
/* columns rows colors chars-per-pixel */
"64 64 14 1 ",
"  c magenta",
". c #100000",
"X c #506860",
"o c #608880",
"O c #303838",
"+ c #88A8A0",
"@ c #A0C0B8",
"# c #605040",
"$ c #405048",
"% c #182828",
"& c #F8F8F8",
"* c #988068",
"= c #E0D8C0",
"- c #C8B8A0",
/* pixels */
"                                                                ",
"                                                                ",
"                                                                ",
"                                                                ",
"                                                                ",
"                                                                ",
"                                                                ",
"                                                                ",
"                                                                ",
"                                                                ",
"                                                                ",
"                                                                ",
"                                                                ",
"                                                                ",
"                                                                ",
"                                                                ",
"                                                                ",
"                                                                ",
"                                                                ",
"                                                                ",
"                                                                ",
"                                                                ",
"                                                                ",
"                                                                ",
"                                                                ",
"                                                                ",
"                           .....                                ",
"                        ...XooXO.                               ",
"                       .OOOO...XO.                              ",
"                      .o+@@+O.#.XO.                             ",
"                      .ooXXo+O..XOO.                            ",
"                     .o+@@+Xo+O.XO$%.                           ",
"                     .+@&&@+XoO..XOO.                           ",
"                     .@&&&@+oXoO.XOO%.                          ",
"                    .o@@&@&@+XoO.XO$O.                          ",
"                    .o+@@+@+ooX+%.$O%%.                         ",
"                    .++++++o+oXo%.$OO%.                         ",
"                    .o++ooooooXX$.X$O%%.                        ",
"                    .o+oooooooXo$%$XOO%.                        ",
"                    .o+oX$$XooX@o$XXO%%.                        ",
"                   .Xo&&@@o$XXX++oo$OO%.                        ",
"                   .o@****@o$XoooX$...O.                        ",
"                 ...@*&&==#@o$XoX..oXO.#.                       ",
"                .XX.*&&&&==#+XXoX.Xo+X.#.  ..                   ",
"                .X$.-======*#+Xo.$OXo%.#...oX.                  ",
"               .X$%.-======*#+o+.oOOOOO..%o+oX.                 ",
"               .$...-=*#*==*#@X+O+$%X$O.XOXoX$.                 ",
"               .XO..-=#.#=*#.@XO+$$.o$O.$$%XO%.                 ",
"               .XO..#-=#=*#.+$oOo$O.o$O.OO%.$$O.                ",
"              .XOO. .#***#.=*X*O$$.#.o$O....X$O.                ",
"              .XOO. .*....=*#*--..##.+$O.  .o$O.                ",
"              .XO%. .#--==*#*--=*###.+$O.  .o$O.                ",
"              .XO%.  .#####*-==--*##.o$O.   .o...               ",
"              .XO%.  .###*=-----***##....   ..$O.               ",
"              ..O.    .#**--****#*###.o$O.   .$O.               ",
"              .$..    ...#*#*#######..o$O.   .$O.               ",
"              .$%.   .OO...#######.. .X$O.    .$O.              ",
"             .$O%.   .OO.  .......    .$$.    .$O.              ",
"             .$O.    .O.              .X$O.    .O.              ",
"             .$O.   .OO.               .$O.    .OO.             ",
"             .$.    .O.                .$O.     .O.             ",
"             .X.    .O.                 .O.     .O.             ",
"             .o.    .$.                 .$.     .$.             ",
"             ..     ..                   ..      ..             "
};
