/* XPM */
static char *result[] = {
/* columns rows colors chars-per-pixel */
"64 64 14 1 ",
"  c magenta",
". c #100000",
"X c #182828",
"o c #506860",
"O c #608880",
"+ c #303838",
"@ c #988068",
"# c #88A8A0",
"$ c #A0C0B8",
"% c #605040",
"& c #F8F8F8",
"* c #405048",
"= c #E0D8C0",
"- c #C8B8A0",
/* pixels */
"                                                                ",
"                                                                ",
"                                                                ",
"                                                                ",
"                                                                ",
"                                                                ",
"                                                                ",
"                                                                ",
"                                                                ",
"                                                                ",
"                                                                ",
"                                                                ",
"                                                                ",
"                                                                ",
"                                                                ",
"                                                                ",
"                                                                ",
"                                                                ",
"                                                                ",
"                                                                ",
"                                                                ",
"                                                                ",
"                                                                ",
"                                                                ",
"                                                                ",
"                                                                ",
"                           ......                               ",
"                         ..XoOOo+.                              ",
"                       ..XXXXX@+oX.                             ",
"                      .O##$+X@%X+o+.                            ",
"                     .OOOoo#+XXXX+oX.                           ",
"                     .O#$$#oO+%@X+o+.                           ",
"                     .#$&&$#o#%XXXo+X.                          ",
"                    .O$&&&$#oO+XX@+o+.                          ",
"                    .O$$&$&$#oOX@%+o+..                         ",
"                    .O#$$#$#OoO+XXXo+X.                         ",
"                    .######O#OoOXXX++X.                         ",
"                    .O##OOOOOOoo*XX*+XX.                        ",
"                   .*O#OOOOOOOoO*X+o++X.                        ",
"                   .oO#Oo**oOOo$O**O+XX.                        ",
"                   .O#&&$$O*ooo#OOO*++X.                        ",
"                   .O@@@@$$O*oOO#Oo...+.                        ",
"                 ...@=&&=@%$O*oOo..Oo+.%.                       ",
"                .o*.@&&&&==%#ooOo.oO#o.%.  ..                   ",
"                .o*%-======@%#oO.*+oOo.%...Oo.                  ",
"               .o*X@-===@==@%#O#.O++XX+..XoO#o.                 ",
"               .*..@===@.%=@%$o#+#*Xo*+.o+*oo*.                 ",
"               .o+.%-==@.%@%.$o+O**.O*+.*+Xo+X.                 ",
"               .++..%-==%@%.#*O+**+.#o*.+XX.o*+.                ",
"              .o++. .%@@@%.%=o@.++.%.#*+....O*+.                ",
"              .o++. ......==%@-@..%%.#*+.  .O*+.                ",
"              .o+X. .%@@--@%@--=@%%%.#*+.  .Oo*.                ",
"              .o+X.  .%%%%%@--=--@%%.O*++.  .O*+.               ",
"              .*+X.  .%%%@-=---@@@@%%.O...  .O...               ",
"              .*+.    .%%@@@@@@@%@%%%..*+.  ..*+.               ",
"              .*+.    ...%%%@%@%%%%%..o*+.   .o*.               ",
"             ..*+.    .++..%%%%%%%.. .o*+.   .o*+.              ",
"             .*+X.   .++.  .......    .*+.    .*+.              ",
"             .*+X.   .++.             .oo+.   .*+.              ",
"             .*+.    .+.               .o+.    .+.              ",
"             .*+.   .X+.               .*+.    .*+.             ",
"             .o.    .+.                 .+.     .+.             ",
"             .O.    .*.                 .*.     .*.             ",
"             ..     ..                   ..      ..             "
};
