/* XPM */
static char *result[] = {
/* columns rows colors chars-per-pixel */
"64 64 14 1 ",
"  c magenta",
". c #100000",
"X c #506860",
"o c #608880",
"O c #303838",
"+ c #988068",
"@ c #182828",
"# c #88A8A0",
"$ c #605040",
"% c #A0C0B8",
"& c #F8F8F8",
"* c #405048",
"= c #E0D8C0",
"- c #C8B8A0",
/* pixels */
"                                                                ",
"                                                                ",
"                                                                ",
"                                                                ",
"                                                                ",
"                                                                ",
"                                                                ",
"                                                                ",
"                                                                ",
"                                                                ",
"                                                                ",
"                                                                ",
"                                                                ",
"                                                                ",
"                                                                ",
"                                                                ",
"                                                                ",
"                                                                ",
"                                                                ",
"                                                                ",
"                                                                ",
"                                                                ",
"                                                                ",
"                                                                ",
"                                                                ",
"                               ......                           ",
"                              .XoooXO.                          ",
"                     ....    +X@@@@+X.                          ",
"                    .oo##@@ +$...@+$X.                          ",
"                   .oXXXX##@@.....@@XO.                         ",
"                   .##%%#XX#@@$+...@XO.                         ",
"                   .o#%%%%%X#@@$...@XO.                         ",
"                    .o%&&%%%X#@.....+OO.                        ",
"                    .o&&&&%%%X#@...+$OO.                        ",
"                     .&%&%#o#Xoo@...@O@.                        ",
"                     .#%##o#ooXo@...@O@.                        ",
"                     .o##ooo#oXoX@@@OX@@.                       ",
"                     .o#oooooooXo*@O*XO@.                       ",
"                    .*oooooooooX%X**Xo@@.                       ",
"                    .Xo#X**XXooX#oooo*O@.                       ",
"                    .o#&&&%o*XoXo#oX*@*O.                       ",
"                    .o++++&%o*XooXXO@...$.                      ",
"                 .. .+=&&=++%o*XoX*O.oXO..                      ",
"                .X*..-&&&&=-$#XXooX.*o#X..   ..                 ",
"                .X*O$-====+-+$#X#o.*OXo*.. ..XX.                ",
"               .O*@O+-===-.$+$#o##.#oO@@O..OXo#X.               ",
"               .@..@+====-.$+$oX#OoX*@XOO.*XOXoo.               ",
"               .XO@.$-====$+$.oX+O*OO.o*O.*O@*O@.               ",
"               .XO@..$----+$.o*o+.OO..#XO.O...X*O.              ",
"               .XO.  .$+++$.$oX+=+..$.#XO..  .o*O.              ",
"              .XXO.  ......$+$+-=-+$$.#XO.   .o*O.              ",
"              .X*@.  .$$$+++$$+---+$$$.#*O.  .o*O.              ",
"               ..@.  .$$$$$$$+-=++++$$.#*O.  .XXO.              ",
"              .X*..   .$$$$++++++$+$$$.o*.    ....              ",
"              .*O.   .O..$$$$+$+$$$$$....O.   .o*.              ",
"              .*O.   .OO....$$$$$$$.. .o*O.   .X*.              ",
"              .*O.   .OO.   .......   .X*O.   .X*O.             ",
"             .*O.    .O.               .*O.    .*O.             ",
"             .*O.    .O.               .*O.    .*O.             ",
"             .*O.    .O.               .*O.    .*O.             ",
"             .*.    .@.                 .O.     .O.             ",
"             .X.    .O.                 .O.     .O.             ",
"             .o.    .*.                 .*.     .*.             ",
"             ..     ..                   ..      ..             "
};
