/* XPM */
static char *result[] = {
/* columns rows colors chars-per-pixel */
"64 64 14 1 ",
"  c magenta",
". c #100000",
"X c #506860",
"o c #608880",
"O c #988068",
"+ c #182828",
"@ c #88A8A0",
"# c #605040",
"$ c #A0C0B8",
"% c #303838",
"& c #F8F8F8",
"* c #405048",
"= c #E0D8C0",
"- c #C8B8A0",
/* pixels */
"                                                                ",
"                                                                ",
"                                                                ",
"                                                                ",
"                                                                ",
"                                                                ",
"                                                                ",
"                                                                ",
"                                                                ",
"                                                                ",
"                                                                ",
"                                                                ",
"                                                                ",
"                                                                ",
"                                                                ",
"                                                                ",
"                                                                ",
"                                                                ",
"                                                                ",
"                                                                ",
"                                                                ",
"                                                                ",
"                                                                ",
"                                                                ",
"                                                                ",
"                                 .....                          ",
"                               ..XooX.                          ",
"                    ....      .O+..+OX.                         ",
"                   .o@@@++    O#...O#X.                         ",
"                  .oXXXX@@+.........+X.                         ",
"                  .o@$$$XX@++#O.....+X+.                        ",
"                  .o@$$$$$X@++#.....+%+.                        ",
"                   .o@&&$$$X@+......O%%.                        ",
"                   .o@&&&$$$X@+....O#%%.                        ",
"                    .o&&$$@o@X@+....+%+.                        ",
"                    .o@$@@o@oX@+....+%+.                        ",
"                     .o@@ooo@oX@+..+%X++.                       ",
"                     .o@ooooooXo+*+%*X%+.                       ",
"                    .*ooooooooXo$X**Xo++.                       ",
"                    .Xo@X**XXooX$oooo*%+.                       ",
"                    .o@&&&$o*XoX@@oX*+*%.                       ",
"                    .oOOOO&$o*XooXX%+...#.                      ",
"                 .. .O=&&=OO$o*XoX*%.X%%..                      ",
"                .%*..-&&&&O-#@XXooX.o@oX..   ..                 ",
"                .XX*#-===-.#O#@X@oX.*Xo*.. ..XX.                ",
"               .%*+%O-===-.#O#@o@@.@%%++%..%X@oX.               ",
"               .+..+O====-#-O#oX@@%@*+*%%.X%*Xo*.               ",
"               .*%+.#-====-O#.oXO%o*%.X*%.**+*%+.               ",
"               .X%+..#----O#.o*oO.*%..o*%.%...*%.               ",
"               .X%.  .#OOO#.#oXO-O..#.@X%..  .X*%.              ",
"               .X%.  ......#O#O-=-O##.@X%.   .o*%.              ",
"              .X*+.  .###OOO##O---O##.oX%%.  .o*%.              ",
"              .X*+.  .#######O-=OOOO##.@*%.  .X*%.              ",
"               ..+.   .####OOOOOO#O###.@..    ....              ",
"              .X%.    ...####O#O#####...*%.   .oX.              ",
"              .X%.    .%....#######.. .o*%.   .o*.              ",
"              .*%.    .%.   .......   .o*%.   .X*..             ",
"              .*.    .%%.              .*%.    .*%.             ",
"             .*%.    .%.               .*%.    .*%.             ",
"             .*%.    .%.               .*%.    .*%.             ",
"             .*.    .+%.                .%.     .%.             ",
"             .X.    .%.                 .%.     .%.             ",
"             .o.    .*.                 .*.     .*.             ",
"             ..     ...                  ..      ..             "
};
