/* XPM */
static char *result[] = {
/* columns rows colors chars-per-pixel */
"64 64 14 1 ",
"  c magenta",
". c #100000",
"X c #506860",
"o c #608880",
"O c #303838",
"+ c #988068",
"@ c #182828",
"# c #88A8A0",
"$ c #605040",
"% c #A0C0B8",
"& c #F8F8F8",
"* c #405048",
"= c #E0D8C0",
"- c #C8B8A0",
/* pixels */
"                                                                ",
"                                                                ",
"                                                                ",
"                                                                ",
"                                                                ",
"                                                                ",
"                                                                ",
"                                                                ",
"                                                                ",
"                                                                ",
"                                                                ",
"                                                                ",
"                                                                ",
"                                                                ",
"                                                                ",
"                                                                ",
"                                                                ",
"                                                                ",
"                                                                ",
"                                                                ",
"                                                                ",
"                                                                ",
"                                                                ",
"                                                                ",
"                                                                ",
"                                ......                          ",
"                               .XoooXO.                         ",
"                      ....    +X@@@@+X.                         ",
"                     .oo##@@ +$...@+$X.                         ",
"                    .oXXXX##@@.....@@XO.                        ",
"                    .##%%#XX#@@$+...@XO.                        ",
"                    .o#%%%%%X#@@$...@XO.                        ",
"                     .o%&&%%%X#@.....+OO.                       ",
"                     .o&&&&%%%X#@...+$OO.                       ",
"                      .&%&%#o#Xoo@...@O@.                       ",
"                      .#%##o#ooXo@...@O@.                       ",
"                      .o##ooo#oXoX@@@OX@@.                      ",
"                      .o#oooooooXo*@O*XO@.                      ",
"                     .*oooooooooX%X**Xo@@.                      ",
"                     .Xo#X**XXooX#oooo*O@.                      ",
"                     .o#&&&%o*XoXo#oX*@*O.                      ",
"                     .o++++&%o*XooXX..O*O$.                     ",
"                  .. .+=&&-++%o*XoX.XO.X$$.                     ",
"                 .O*..-&&&.$-$#XXo..o#X.$$. ..                  ",
"                .OXX@$-===.$-+$#X#.XXo*.$$..XX.                 ",
"                .O*@*+-===$--+$#o#.OO@@O.$.Xo#X.                ",
"                .@..O+======-+$oX.*o@*OO..O@Xo*.                ",
"                .*O.@$-====-+$.oX.#*.X*O.X*.*O@.                ",
"                .XO@..$----+$.o*o.o*.o*O.OO@.*O.                ",
"                .XO.  .$+++$.$oX+.*O.#XO..@..XO.                ",
"               .XXO.  ......$+$+-+....XOO.. .o*O.               ",
"               .X*@.  .$$$+++$$+--+$$.X*O.  .o*O.               ",
"               .XO@.  .$$$$$$$+-=+++$.#*OO. .X*O.               ",
"               ....    .$$$$++++++$+$.#....  ....               ",
"              .XO.    .O..$$$$+$+$$$$..*O.    .**.              ",
"              .XO.    .OO....$$$$$$$...**.    .*O.              ",
"              .*O.    .@O.   .......  .X*O.   .*O.              ",
"              .*.     .@.              .*O.    .O.              ",
"              .O.    .O@.              .*O.    .*O.             ",
"             .*O.    .O.               .*O.    .*O.             ",
"             .*.     .O.                .O.     .O.             ",
"             .X.    .O.                 .O.     .O.             ",
"             .o.    .*.                 .*.     .*.             ",
"             ..     ..                   ..      ..             "
};
