/* XPM */
static char *result[] = {
/* columns rows colors chars-per-pixel */
"64 64 14 1 ",
"  c magenta",
". c #100000",
"X c #182828",
"o c #506860",
"O c #608880",
"+ c #303838",
"@ c #605040",
"# c #988068",
"$ c #88A8A0",
"% c #A0C0B8",
"& c #F8F8F8",
"* c #405048",
"= c #E0D8C0",
"- c #C8B8A0",
/* pixels */
"                                                                ",
"                                                                ",
"                                                                ",
"                                                                ",
"                                                                ",
"                                                                ",
"                                                                ",
"                                                                ",
"                                                                ",
"                                                                ",
"                                                                ",
"                                                                ",
"                                                                ",
"                                                                ",
"                                                                ",
"                                                                ",
"                                                                ",
"                                                                ",
"                                                                ",
"                                                                ",
"                                                                ",
"                                                                ",
"                                                                ",
"                                                                ",
"                                                                ",
"                                                                ",
"                              ......                            ",
"                            .XoOOoo+.                           ",
"                       ....X@@.XX#+o+.                          ",
"                      .O$$$%....#@X+o+.                         ",
"                      .Oooo$$X.....Xo+.                         ",
"                      .O$$%oo$X.@#..+o+.                        ",
"                       .%&&%$o$X@...Xo+.                        ",
"                       .&&&%%$o$....#+++.                       ",
"                      .O%&%&%%o$X..#@X++.                       ",
"                      .O$%%$O$OoOX...X+X.                       ",
"                      .$$$$O$OOoOX...X+X.                       ",
"                      .O$$OOOOOOooXXX++XX.                      ",
"                     .*O$OOOOOOOoO*X+*o+X.                      ",
"                     .oO$o**ooOOo%o**oOXX.                      ",
"                     .O$&&&%O*ooo$OOOO*+X.                      ",
"                     .O####%%O*oOO$O..X*+.                      ",
"                   ...#=#..@#%O*oOo.*o.*+@...                   ",
"                  .o*.-&-@@--@$ooOo.O$o.@@.Oo.                  ",
"                 .o*.@-==--=-#@$oO.oOo*.@.O$Oo.                 ",
"                 .*X+#-=====-#@$O$.+o+X.@.oOo*.                 ",
"                .*..X#======-#@Oo$.oXo*+.oXo+X.                 ",
"                .*+..@-====-#@.Oo.$*.o*+.*+.**+.                ",
"                .*+. .@----#@.O*O.O*.O*+.+X.o*+.                ",
"                .o+.  .@###@.@Oo#.*+.O*+.X..o*+.                ",
"               .o+X.  ......@-#@-#....O*..  .o*.                ",
"               .o+X.  .@@@####@#-=#@@.$*+.  .O*+.               ",
"               .o+.   .@@@@@@@#-=--#@.$*++. .O...               ",
"               ....    .@@@###---####.$.... ..*+.               ",
"              .*+.     .@@@@######@#@..*+.   .O*.               ",
"              .*+.    .X..@@@@#@#@@@@..o+.    .*+.              ",
"              .*+.    .X. ..@@@@@@@@...o+.    .o+.              ",
"              .*.    .+X.   ........   .*+.   .o+.              ",
"              .*.    .+.               .o+.    .+.              ",
"             .*+.    .+.               .o+.    .*+.             ",
"             .*.    .++.                .+.    .o+.             ",
"             .o.    .+.                 .+.     .+.             ",
"             .O.    .*.                 .*.     .*.             ",
"             ..     ..                   ..     ...             "
};
