/* XPM */
static char *a5fa9913176946fd98f6ede5d215ae48tWvYhUSnkSAn2Y90[] = {
/* columns rows colors chars-per-pixel */
"64 64 30 1 ",
"  c black",
". c #040404",
"X c #0B0809",
"o c gray4",
"O c #110D0E",
"+ c #111313",
"@ c #141413",
"# c #181315",
"$ c #151718",
"% c #181C1C",
"& c #191C1C",
"* c #1F2223",
"= c #232728",
"- c #382B2F",
"; c #293133",
": c #2A3133",
"> c #313C3F",
", c #4B3F38",
"< c #383F40",
"1 c #464D4F",
"2 c #796F47",
"3 c #536265",
"4 c #62797E",
"5 c #F78300",
"6 c #FF992C",
"7 c #FFB62C",
"8 c #FFD02C",
"9 c #FFEC24",
"0 c #BAB77A",
"q c #F5F9ED",
/* pixels */
"                                                                ",
"111111<1<1<1<<<-111111<1<1<1<<<-111111<1<1<1<<<-111111<1<1<1<<<-",
"1<<<<<<<<<<<<<<#$++++++++++++++O$++++++++++++++O=<<<<<<<<<<<<<<-",
"1<4<<44441<<<4<#                                =<4<<44441<<<4<-",
"1-<<4------<-<<#                                =-<<4------<-<<-",
"1<<4--------1<<#                                =<<4--------1<<-",
"1<4---5775---1<#                                =<4---5775---1<-",
"1<4--577775--4<#                                =<4--577775--4<-",
"1<4--779977--4<#                                =<4--779977--4<-",
"1<4--77qq77--4<#                                =<4--77qq77--4<-",
"410<<88qq88<<01&                                >10<<88qq88<<01<",
"1<4--77qq77--4<#                                =<4--77qq77--4<-",
"410<<88qq88<<01&                                >10<<88qq88<<01<",
"410<<88qq88<<01#                                >10<<88qq88<<01-",
"410<<88qq88<<01&                                >10<<88qq88<<01<",
"410<<88qq88<<01#                                >10<<88qq88<<01-",
"410<<88qq88<<01&                                >10<<88qq88<<01<",
"410<<88qq88<<01%                                >10<<88qq88<<01<",
"410<<88qq88<<01%                                >10<<88qq88<<01<",
"410<<88qq88<<01%                                >10<<88qq88<<01<",
"410<<88qq88<<01*                                >10<<88qq88<<011",
"310<<88qq88<<01%                                ;10<<88qq88<<01<",
"410<<88qq88<<01*                                >10<<88qq88<<011",
"310<<88qq88<<01%                                ;10<<88qq88<<01<",
"410<<88qq88<<01*                                >10<<88qq88<<011",
"310<<88qq88<<01%                                ;10<<88qq88<<01<",
"310<<88qq88<<01&                                ;10<<88qq88<<01<",
"310<<88qq88<<01&                                ;10<<88qq88<<01<",
"310<<88qq88<<01#                                ;10<<88qq88<<01-",
"310<<88qq88<<01&                                ;10<<88qq88<<01<",
"310<<88qq88<<01#                                ;10<<88qq88<<01-",
"310<<88qq88<<01&                                ;10<<88qq88<<01<",
"310<<88qq88<<01#                                ;10<<88qq88<<01-",
"310<<88qq88<<01#                                ;10<<88qq88<<01-",
"310<<88qq88<<01#                                ;10<<88qq88<<01-",
"310<<88qq88<<01#                                ;10<<88qq88<<01-",
"310<<88qq88<<01#                                ;10<<88qq88<<01-",
"310<<88qq88<<01#                                ;10<<88qq88<<01-",
"310<<88qq88<<01#                                ;10<<88qq88<<01-",
"310<<88qq88<<01#                                :10<<88qq88<<01-",
"310<<88qq88<<01#                                ;10<<88qq88<<01-",
"310<<88qq88<<01#                                ;10<<88qq88<<01-",
"110<<88qq88<<01#                                =10<<88qq88<<01-",
"310<<88qq88<<01#                                ;10<<88qq88<<01-",
"110<<88qq88<<01#                                =10<<88qq88<<01-",
"310<<88qq88<<01#                                ;10<<88qq88<<01-",
"110<<88qq88<<01#                                =10<<88qq88<<01-",
"310<<88qq88<<01#                                ;10<<88qq88<<01-",
"110<<88qq88<<01#                                =10<<88qq88<<01-",
"110<<88qq88<<01#                                =10<<88qq88<<01-",
"114<<88qq88<<01#                                =14<<88qq88<<01-",
"110<<889988<<01#                                =10<<889988<<01-",
"114<<688886<<01#                                =14<<688886<<01-",
"114<<<6886<<<01#                                =14<<<6886<<<01-",
"1114<<<<<<<<011#                                =114<<<<<<<<011-",
"11114<<<<<<0111#                                =1114<<<<<<0111-",
"111114040001111#                                =11114040001111-",
"1<111111<111111#                                =<111111<111111-",
"<11111111111111#                                *11111111111111-",
"11,20111111021,#                                =1,20111111021,-",
"<1-2211<11-2211#                                &1-2211<11-2211-",
"11--,11111--11,#                                =1--,11111--11,-",
"111,,11111111,1#                                =11,,11111111,1-",
"@-@@@@-@-------#.X....X.XXXXXXXX.X....X.XXXXXXooo-@@@@-@--------"
};
