/* XPM */
static char *result[] = {
/* columns rows colors chars-per-pixel */
"64 64 14 1 ",
"  c magenta",
". c #2F2F2E",
"X c #484846",
"o c #3B3B39",
"O c #5E182C",
"+ c #741A33",
"@ c #9E293B",
"# c #DAA935",
"$ c #69483A",
"% c #DA8335",
"& c #D2735D",
"* c #EC8C76",
"= c #9299A4",
"- c #F1F0FD",
/* pixels */
"                                                                ",
"                                                                ",
"                                                                ",
"                                                                ",
"                                                                ",
"                                                                ",
"                                                                ",
"                                                                ",
"                                                                ",
"                                                                ",
"                                                                ",
"                                                                ",
"              ..                 .......                        ",
"              .X.     ......     .oooooX...                     ",
"            ...oX.    .ooooX..    ...oooooX..                   ",
"           .ooooX.     ...oooX...    .ooooooX.                  ",
"          .ooO+OoX.       .oooooX.......oooooX.                 ",
"         .ooO+++Oo. ..    .oooooooXXX+++++OoooX.                ",
"         .oO+++++oX.X.     ..ooooooooX+@@++@@+oX.               ",
"         .O+..+++OooX.     ...O+oooooooX@@@@@@+X.               ",
"        .++. .O+++oo.      .ooo++++++oooX@@+@@@+.               ",
"        .++.  .+++oo.      .O+++@@+@+@@+o@@@+@+@@.              ",
"        .++.  .+++oo. ..  .oo++@@@@@+@@@@@@@+@@+@.              ",
"        .++.  .+++Oo..X.  .+++++@@@@@@@+@@++####++.             ",
"        .O+.  .O+++oooX.  .+++@@@@@@@@@@+++####$#+.             ",
"         .++.  .+++Oooo...O++@@@@@@@++##+++%###$%+#.            ",
"         .O+.  .++++Ooooo.+++++@@@@++%%$%++%%%%$%+%.            ",
"          .O+. .+++++++++.+++@@@@@@@++%%++++%%%%+++.            ",
"           ... .++++++++.O++++@@@@@@@@+++@@@++++@@@@.           ",
"               .O++++++..ooooO+++@@@@@@++++@@@@@@@++..          ",
"                .+++++.ooooooooo@@@@@@+&***+++++++&*@..         ",
"                .++++.oooooooooX++++++&*$$$&*****&$=@.X.        ",
"          .....  ....oooooooooX.O&&&&&*$=$-.-.-.=$.-..X.        ",
"          .oooo....ooooooooooX.+@&.&.&-.-.-.....-.&....         ",
"           .oooooooooooooooXX.+++@&*.*..-.........&.            ",
"            ...ooooooooooXX..++++@&*.*...OOOO.O..-&.            ",
"               ...XXXXXXX..+++++++@&.*.OOOOOOO.O.=..            ",
"                  .........+++++++@&.*..OOOOOOOO..-.            ",
"                          .++++++++@&*.-..OO..OO..-.            ",
"                           .+O+++++@&&$-.-..-...-$*@.           ",
"                           .+.++++++@&&=$=$$-..-=$&@.           ",
"                            ..+++++++@@&**&$==$$&*@.            ",
"                             .++O++++++@@@@&***&@@.             ",
"                              .+.+++O++++++@@@@@+.              ",
"                               ..+++.++++.o++++X.               ",
"                                 ..+.++++.oXXXX.                ",
"                                   ..++++.oXXX.                 ",
"                                     ......XXX.                 ",
"                                          .oX.                  ",
"                                           .o.                  ",
"                                            ..                  ",
"                                                                ",
"                                                                ",
"                                                                ",
"                                                                ",
"                                                                ",
"                                                                ",
"                                                                ",
"                                                                ",
"                                                                ",
"                                                                ",
"                                                                ",
"                                                                ",
"                                                                "
};
