/* XPM */
static char *result[] = {
/* columns rows colors chars-per-pixel */
"64 64 14 1 ",
"  c magenta",
". c #2F2F2E",
"X c #3B3B39",
"o c #484846",
"O c #741A33",
"+ c #5E182C",
"@ c #9E293B",
"# c #DAA935",
"$ c #69483A",
"% c #DA8335",
"& c #D2735D",
"* c #EC8C76",
"= c #9299A4",
"- c #F1F0FD",
/* pixels */
"                                                                ",
"                                                                ",
"                                                                ",
"                                                                ",
"                                                                ",
"                                                                ",
"                                                                ",
"                                                                ",
"                                                                ",
"                                                                ",
"                                                                ",
"                                                                ",
"                                                                ",
"                                 .......                        ",
"           ...        ......     .XXXXXo...                     ",
"        ...XXo.       .XXXXo..    ...XXXXXo..                   ",
"        .OOO+Xo....    ...XXXo...    .XXXXXXo.                  ",
"         ..+O+XXXo.       .XXXXXo.......XXXXXo.                 ",
"           .OO+Xo.        .XXXXXXXoooOOOOO+XXXo.                ",
"           .+OOXo.         ..XXXXXXXXoO@@OO@@OXo.               ",
"            .OOXo...       ...+OXXXXXXXo@@@@@@Oo.               ",
"            .OOXoXo.       .XXXOOOOOOXXXo@@O@@@O.               ",
"            .OOXXo.        .+OOO@@O@O@@OX@@@O@O@@.              ",
"            .OOXXo.       .XXOO@@@@@O@@@@@@@O@@O@.              ",
"            .OO+Xo. ...   .OOOOO@@@@@@@O@@OO####OO.             ",
"            .OOO+X..Xo.   .OOO@@@@@@@@@@OOO####$#O.             ",
"            .OOOO+XXXo.....OO@@@@@@@OO##OOO%###$%O#.            ",
"            .OOOOOO+XXXXX.+OOOO@@@@OO%%$%OO%%%%$%O%.            ",
"            .+OOOOOOOOOOO.OOO@@@@@@@OO%%OOOO%%%%OOO.            ",
"             .+OOOOOOOOO.+OOOO@@@@@@@@OOO@@@OOOO@@@@.           ",
"              .+OOOOOOO..XXXX+OOO@@@@@@OOOO@@@@@@@OO..          ",
"               .+OOOOO.XXXXXXXXX@@@@@@O&***OOOOOOO&*@..         ",
"                ..+OO.XXXXXXXXXoOOOOOO&*$$$&*****&$=@.o.        ",
"          .....   ...XXXXXXXXXo.+&&&&&*$=$-.-.-.=$.-..o.        ",
"          .XXXX....XXXXXXXXXXo.O@&.&.&-.-.-.....-.&....         ",
"           .XXXXXXXXXXXXXXXoo.OOO@&*.*..-.........&.            ",
"            ...XXXXXXXXXXoo..OOOOO@&.*...++++.+..-..            ",
"               ...ooooooo..OOOOOOO@&.*..++++++.+.=-.            ",
"                  .........OOOOOOOO@&*.-..++..++..-.            ",
"                           .O+OOOOO@&&$-.-..-...-$*@.           ",
"                           .O.OOOOOO@&&=$=$$-..-=$&@.           ",
"                            ..OOOOOOO@@&**&$==$$&*@.            ",
"                             .OO+OOOOOO@@@@&***&@@.             ",
"                              .O.OOO+OOOOOO@@@@@O.              ",
"                               ..OOO.OOOO.XOOOOo.               ",
"                                 ..O.OOOO.Xoooo.                ",
"                                   ..OOOO.Xooo.                 ",
"                                     ......ooo.                 ",
"                                          .Xo.                  ",
"                                           .X.                  ",
"                                            ..                  ",
"                                                                ",
"                                                                ",
"                                                                ",
"                                                                ",
"                                                                ",
"                                                                ",
"                                                                ",
"                                                                ",
"                                                                ",
"                                                                ",
"                                                                ",
"                                                                ",
"                                                                "
};
