/* XPM */
static char *result[] = {
/* columns rows colors chars-per-pixel */
"64 64 14 1 ",
"  c magenta",
". c #2F2F2E",
"X c #3B3B39",
"o c #484846",
"O c #741A33",
"+ c #5E182C",
"@ c #9E293B",
"# c #DAA935",
"$ c #69483A",
"% c #DA8335",
"& c #D2735D",
"* c #EC8C76",
"= c #9299A4",
"- c #F1F0FD",
/* pixels */
"                                                                ",
"                                                                ",
"                                                                ",
"                                                                ",
"                                                                ",
"                                                                ",
"                                                                ",
"                                                                ",
"                                                                ",
"                                                                ",
"                                                                ",
"                                                                ",
"                                                                ",
"                                .......                         ",
"                     ......     .XXXXXo...                      ",
"                     .XXXXo..    ...XXXXXo..                    ",
"                      ...XXXo...    .XXXXXXo.                   ",
"                         .XXXXXo.......XXXXXo.                  ",
"                         .XXXXXXXoooOOOOO+XXXo.                 ",
"                          ..XXXXXXXXoO@@OO@@OXo.                ",
"                          ...+OXXXXXXXo@@@@@@Oo.                ",
"                          .XXXOOOOOOXXXo@@O@@@O.                ",
"         ..               .+OOO@@O@O@@OX@@@O@O@@.               ",
"         .O.             .XXOO@@@@@O@@@@@@@O@@O@.               ",
"         .OX.            .OOOOO@@@@@@@O@@OO####OO.              ",
"         .OX.            .OOO@@@@@@@@@@OOO####$#O.              ",
"         .O+X...        .+OO@@@@@@@OO##OOO%###$%O#.             ",
"         .OOXXo.        .OOOOO@@@@OO%%$%OO%%%%$%O%.             ",
"         .+OXo.         .OOO@@@@@@@OO%%OOOO%%%%OOO.             ",
"          .O+Xo.       .+OOOO@@@@@@@@OOO@@@OOOO@@@@.            ",
"          .OO+Xo.  .. ..XXXX+OOO@@@@@@OOOO@@@@@@@OO..           ",
"          .+OO+Xo..Xo.XXXXXXXXX@@@@@@O&***OOOOOOO&*@..          ",
"           .OOOO+XXX.XXXXXXXXXoOOOOOO&*$$$&*****&$=@.o.         ",
"         .....OOO+..XXXXXXXXXo.+&&&&&*$=$-.-.-.=$.-..o.         ",
"         .XXXX....XXXXXXXXXXo.OO@&*.&-.-.-.....-.&....          ",
"          .XXXXXXXXXXXXXXXoo.OOOO@&.*..-...........             ",
"           ...XXXXXXXXXXoo..OOOOO@&.*...++++.+..--.             ",
"              ...ooooooo..OOOOOOOO@&*.-..++...+..-.             ",
"                 ........ .O+OOOOO@&&$-.-..-...-$*@.            ",
"                          .O.OOOOOO@&&=$=$$-..-=$&@.            ",
"                           ..OOOOOOO@@&**&$==$$&*@.             ",
"                            .OO+OOOOOO@@@@&***&@@.              ",
"                             .O.OOO+OOOOOO@@@@@O.               ",
"                              ..OOO.OOOO.XOOOOo.                ",
"                                ..O.OOOO.Xoooo.                 ",
"                                  ..OOOO.Xooo.                  ",
"                                    ......ooo.                  ",
"                                         .Xo.                   ",
"                                          .X.                   ",
"                                           ..                   ",
"                                                                ",
"                                                                ",
"                                                                ",
"                                                                ",
"                                                                ",
"                                                                ",
"                                                                ",
"                                                                ",
"                                                                ",
"                                                                ",
"                                                                ",
"                                                                ",
"                                                                ",
"                                                                "
};
