/* XPM */
static char *result[] = {
/* columns rows colors chars-per-pixel */
"64 64 14 1 ",
"  c magenta",
". c #2F2F2E",
"X c #3B3B39",
"o c #484846",
"O c #741A33",
"+ c #5E182C",
"@ c #9E293B",
"# c #DAA935",
"$ c #69483A",
"% c #DA8335",
"& c #D2735D",
"* c #EC8C76",
"= c #9299A4",
"- c #F1F0FD",
/* pixels */
"                                                                ",
"                                                                ",
"                                                                ",
"                                                                ",
"                                                                ",
"                                                                ",
"                                                                ",
"                                                                ",
"                                                                ",
"                                                                ",
"                                                                ",
"                                                                ",
"                                 .......                        ",
"                      ......     .XXXXXo...                     ",
"                      .XXXXo..    ...XXXXXo..                   ",
"                       ...XXXo...    .XXXXXXo.                  ",
"                          .XXXXXo.......XXXXXo.                 ",
"                          .XXXXXXXoooOOOOO+XXXo.                ",
"                           ..XXXXXXXXoO@@OO@@OXo.               ",
"                           ...+OXXXXXXXo@@@@@@Oo.               ",
"                           .XXXOOOOOOXXXo@@O@@@O.               ",
"                           .+OOO@@O@O@@OX@@@O@O@@.              ",
"                          .XXOO@@@@@O@@@@@@@O@@O@.              ",
"                          .OOOOO@@@@@@@O@@OO####OO.             ",
"                          .OOO@@@@@@@@@@OOO###$##O.             ",
"                          .OO@@@@@@@OO##OOO%##$#%O#.            ",
"                          .OOOO@@@@OO%%$%OO%%%$%%O%.            ",
"                         .+OO@@@@@@@OO%%OOOO%%%%OOO.            ",
"                         .+OOO@@@@@@@@OOO@@@OOOO@@@@.           ",
"                       ..XXXX+OOO@@@@@@OOOO@@@@@@@OO..          ",
"                      .XXXXXXXXX@@@@@@O&***OOOOOOO&*@..         ",
"                     .XXXXXXXXXoOOOOOO&*$$$&*****&$=@.o.        ",
"          .....    ..XXXXXXXXXo.+&&&&&*$=$-.-.-.=$.-..o.        ",
"          .XXXX....XXXXXXXXXXo.O@&.&.&-.-.-.....-.&....         ",
"        .. .XXXXXXXXXXXXXXXoo.OOO@&*.*..-.........&.            ",
"        .O.....XXXXXXXXXXoo..OOOO@&*.*...++++.+..-&.            ",
"        .OXo.Xo...ooooooo..OOOOOOO@&.*.+++++++.+.=..            ",
"        .O+XXXo............OOOOOOO@&.*..++++++++..-.            ",
"        .+OO+XXX+OOOOOOO++.OOOOOOOO@&*.-..++..++..-.            ",
"         .+OOOOOOOOOOOO+.. .O+OOOOO@&&$-.-..-...-$*@.           ",
"          .+OOOOOOOOO+..   .O.OOOOOO@&&=$=$$-..-=$&@.           ",
"           ..+OOOOO+..      ..OOOOOOO@@&**&$==$$&*@.            ",
"             .......         .OO+OOOOOO@@@@&***&@@.             ",
"                              .O.OOO+OOOOOO@@@@@O.              ",
"                               ..OOO.OOOO.XOOOOo.               ",
"                                 ..O.OOOO.Xoooo.                ",
"                                   ..OOOO.Xooo.                 ",
"                                     ......ooo.                 ",
"                                          .Xo.                  ",
"                                           .X.                  ",
"                                            ..                  ",
"                                                                ",
"                                                                ",
"                                                                ",
"                                                                ",
"                                                                ",
"                                                                ",
"                                                                ",
"                                                                ",
"                                                                ",
"                                                                ",
"                                                                ",
"                                                                ",
"                                                                "
};
