/* XPM */
static char *result[] = {
/* columns rows colors chars-per-pixel */
"64 64 14 1 ",
"  c magenta",
". c #2F2F2E",
"X c #3B3B39",
"o c #484846",
"O c #741A33",
"+ c #5E182C",
"@ c #9E293B",
"# c #DAA935",
"$ c #69483A",
"% c #DA8335",
"& c #D2735D",
"* c #EC8C76",
"= c #9299A4",
"- c #F1F0FD",
/* pixels */
"                                                                ",
"                                                                ",
"                                                                ",
"                                                                ",
"                                                                ",
"                                                                ",
"                                                                ",
"                                                                ",
"                                                                ",
"                                                                ",
"                                                                ",
"                                                                ",
"                                 .......                        ",
"                      ......     .XXXXXo...                     ",
"                      .XXXXo..    ...XXXXXo..                   ",
"                       ...XXXo...    .XXXXXXo.                  ",
"                          .XXXXXo.......XXXXXo.                 ",
"                          .XXXXXXXoooOOOOO+XXXo.                ",
"                           ..XXXXXXXXoO@@OO@@OXo.               ",
"                           ...+OXXXXXXXo@@@@@@Oo.               ",
"                           .XXXOOOOOOXXXo@@O@@@O.               ",
"                           .+OOO@@O@O@@OX@@@O@O@@.              ",
"                          .XXOO@@@@@O@@@@@@@O@@O@.              ",
"                          .OOOOO@@@@@@@O@@OO####OO.             ",
"                          .OOO@@@@@@@@@@OOO###$##O.             ",
"                  ...   ...OO@@@@@@@OO##OOO%##$#%O#.            ",
"                  .Xo...X.+OOOO@@@@OO%%$%OO%%%$%%O%.            ",
"                  .XoXXX+.OOO@@@@@@@OO%%OOOO%%%%OOO.            ",
"                  .XX+OO.+OOOO@@@@@@@@OOO@@@OOOO@@@@.           ",
"                 .X+OOO..XXXX+OOO@@@@@@OOOO@@@@@@@OO..          ",
"                .X+OOO.XXXXXXXXX@@@@@@O&***OOOOOOO&*@..         ",
"               .X+OOO.XXXXXXXXXoOOOOOO&*$$$&*****&$=@.o.        ",
"          ......+OO..XXXXXXXXXo.+&&&&&*$=$-.-.-.=$.-..o.        ",
"          .XXXX....XXXXXXXXXXo.O@&.&.&-.-.-.....-.&....         ",
"           .XXXXXXXXXXXXXXXoo.OO@&.&.*..-.........&.            ",
"            ...XXXXXXXXXXoo..OOOO@&*.*...........-&.            ",
"          ..oXO...ooooooo..OOOOOO@&*.*...++++.+..=&.            ",
"       ...XXXOOOOO.........OOOOOOO@&.*.+++++++.+....            ",
"       .+OOOOOO+..        .OOOOOOO@&.*..++++++++..-.            ",
"        ..+++...          .OOOOOOOO@&*.-..++..++..-.            ",
"          ...              .O+OOOOO@&&$-.-..-...-$*@.           ",
"                           .O.OOOOOO@&&=$=$$-..-=$&@.           ",
"                            ..OOOOOOO@@&**&$==$$&*@.            ",
"                             .OO+OOOOOO@@@@&***&@@.             ",
"                              .O.OOO+OOOOOO@@@@@O.              ",
"                               ..OOO.OOOO.XOOOOo.               ",
"                                 ..O.OOOO.Xoooo.                ",
"                                   ..OOOO.Xooo.                 ",
"                                     ......ooo.                 ",
"                                          .Xo.                  ",
"                                           .X.                  ",
"                                            ..                  ",
"                                                                ",
"                                                                ",
"                                                                ",
"                                                                ",
"                                                                ",
"                                                                ",
"                                                                ",
"                                                                ",
"                                                                ",
"                                                                ",
"                                                                ",
"                                                                "
};
