/* XPM */
static char *result[] = {
/* columns rows colors chars-per-pixel */
"64 64 14 1 ",
"  c magenta",
". c #2F2F2E",
"X c #3B3B39",
"o c #484846",
"O c #5E182C",
"+ c #741A33",
"@ c #9E293B",
"# c #DAA935",
"$ c #69483A",
"% c #DA8335",
"& c #D2735D",
"* c #EC8C76",
"= c #9299A4",
"- c #F1F0FD",
/* pixels */
"                                                                ",
"                                                                ",
"                                                                ",
"                                                                ",
"                                                                ",
"                                                                ",
"                                                                ",
"                                                                ",
"                                                                ",
"                                                                ",
"                                                                ",
"                                                                ",
"            ...                 .......                         ",
"            .Xo.    .......     .XXXXXo...                      ",
"            .XXo....o.XXXXo..    ...XXXXXo..                    ",
"            .XXXXXXXXo...XXXo...    .XXXXXXo.                   ",
"            .XXO+++OXX.  .XXXXXo.......XXXXXo.                  ",
"           .XO++++++OX.  .XXXXXXXooo+++++OXXXo.                 ",
"           .X++++++++X......XXXXXXXXo+@@++@@+Xo.                ",
"          .XO++++++++OXXo....O+XXXXXXXo@@@@@@+o.                ",
"          .X++O.O+++++XX. .XXX++++++XXXo@@+@@@+.                ",
"          .X++. .+++++OX. .O+++@@+@+@@+X@@@+@+@@.               ",
"          .X++.  .+++++Oo.XX++@@@@@+@@@@@@@+@@+@.               ",
"          .X++.  .O+++++O.+++++@@@@@@@+@@++####++.              ",
"          .X++.   .++++++.+++@@@@@@@@@@+++###$##+.              ",
"          .X++.   .O++++.O++@@@@@@@++##+++%##$#%+#.             ",
"           .++.    .++++.+++++@@@@++%%$%++%%%$%%+%.             ",
"           .O+.     .+++.+++@@@@@@@++%%++++%%%%+++.             ",
"            .O.      .O.O++++@@@@@@@@+++@@@++++@@@@.            ",
"            .O.      ...XXXXO+++@@@@@@++++@@@@@@@++..           ",
"            .O.      .XXXXXXXXX@@@@@@+&***+++++++&*@..          ",
"             ..     .XXXXXXXXXo++++++&*$$$&*****&$=@.o.         ",
"         .....    ..XXXXXXXXXo.O&&&&&*$=$-.-.-.=$.-..o.         ",
"         .XXXX....XXXXXXXXXXo.+@&.&.&-.-.-.....-.&....          ",
"          .XXXXXXXXXXXXXXXoo.+++@&*.*..-.........&.             ",
"           ...XXXXXXXXXXoo..++++@&*.*...........-&.             ",
"              ...ooooooo..+++++++@&.*...OOOO.O..=..             ",
"                 .........+++++++@&.*..OOOOOO.O..-.             ",
"                         .++++++++@&*.-..OO..OO..-.             ",
"                          .+O+++++@&&$-.-..-...-$*@.            ",
"                          .+.++++++@&&=$=$$-..-=$&@.            ",
"                           ..+++++++@@&**&$==$$&*@.             ",
"                            .++O++++++@@@@&***&@@.              ",
"                             .+.+++O++++++@@@@@+.               ",
"                              ..+++.++++.X++++o.                ",
"                                ..+.++++.Xoooo.                 ",
"                                  ..++++.Xooo.                  ",
"                                    ......ooo.                  ",
"                                         .Xo.                   ",
"                                          .X.                   ",
"                                           ..                   ",
"                                                                ",
"                                                                ",
"                                                                ",
"                                                                ",
"                                                                ",
"                                                                ",
"                                                                ",
"                                                                ",
"                                                                ",
"                                                                ",
"                                                                ",
"                                                                ",
"                                                                "
};
